<svg xmlns="http://www.w3.org/2000/svg" width="192.141" height="92.904" viewBox="0 0 192.141 92.904"><g transform="translate(-20.395 -176.785)"><g transform="translate(20.395 176.785)"><g transform="translate(0 0)"><g transform="translate(0 0)"><g transform="translate(0 0)"><g transform="translate(0)"><g transform="translate(0)"><path d="M299.187,233.063a5.777,5.777,0,0,1-4.291,1.921,4.843,4.843,0,0,1-3.426-1.569,5.637,5.637,0,0,1,0-7.077,4.738,4.738,0,0,1,3.394-1.537,6.042,6.042,0,0,1,4.2,1.857l.128.128,2.562-2.946-.1-.1a8.975,8.975,0,0,0-6.725-2.658,8.666,8.666,0,0,0-6.373,2.53,9.131,9.131,0,0,0-.064,12.617,9.3,9.3,0,0,0,13.258-.512l.1-.128L299.283,233Z" transform="translate(-201.258 -207.215)" fill="#fff"/><path d="M353.593,235.25h-8.358V221.8H341.2v17.132h12.393Z" transform="translate(-238.788 -207.705)" fill="#fff"/><path d="M399.1,235.314h-9.127v-3.2h7.942v-3.619h-7.942v-3.074h9V221.8H386v17.132h13.1Z" transform="translate(-269.242 -207.705)" fill="#fff"/><path d="M437.4,234.95h6.885l1.537,3.779h4.227l-7.3-17.132v-.1h-3.619L431.8,238.761h4.131Zm1.441-3.587,1.985-4.836,1.985,4.836Z" transform="translate(-300.375 -207.501)" fill="#fff"/><path d="M497.5,228.589l7.814,10.279.064.064h3.394V221.8H504.8v10.023l-7.59-9.959-.032-.064H493.5v17.132h4Z" transform="translate(-342.317 -207.705)" fill="#fff"/><path d="M301.3,289.987V286.4h-13v17.1h13.13v-3.619H292.3v-3.2h7.942v-3.619H292.3v-3.074Z" transform="translate(-202.828 -251.618)" fill="#fff"/><path d="M339.871,293.157l7.846,10.279.032.064h3.394V286.4h-3.971v9.991l-7.557-9.959-.064-.032H335.9v17.1h3.971Z" transform="translate(-235.185 -251.618)" fill="#fff"/><path d="M404.8,289.987V286.4h-13v17.1h13.13v-3.619H395.8v-3.2h7.91v-3.619H395.8v-3.074Z" transform="translate(-273.184 -251.618)" fill="#fff"/><path d="M450.579,303.568h4.675l-4.163-6.084a5.385,5.385,0,0,0,3.491-5.284c0-3.587-2.434-5.7-6.5-5.7H440.3v17.132h4.035v-5.38h2.626Zm-6.277-13.45h3.491c1.761,0,2.722.8,2.722,2.242,0,1.377-1.025,2.21-2.658,2.21h-3.587Z" transform="translate(-306.153 -251.686)" fill="#fff"/><path d="M498.456,303.286a11.142,11.142,0,0,0,7.269-2.69V293.07H498.1v3.491h3.715v2.146a5.828,5.828,0,0,1-3.33.929,4.877,4.877,0,0,1-4.932-5.156,4.87,4.87,0,0,1,4.675-5.06,6.077,6.077,0,0,1,4.291,1.665l.128.1,2.53-3.074-.128-.1a9.389,9.389,0,0,0-6.693-2.338,8.8,8.8,0,0,0-8.967,8.838,8.6,8.6,0,0,0,9,8.774" transform="translate(-339.523 -251.115)" fill="#fff"/><path d="M551.832,303.5v-6.789L558.4,286.4h-4.579l-3.971,6.565-3.939-6.565H541.2l6.6,10.376V303.5Z" transform="translate(-374.741 -251.618)" fill="#fff"/><path d="M299.187,362.063a5.777,5.777,0,0,1-4.291,1.921,4.843,4.843,0,0,1-3.426-1.569,5.637,5.637,0,0,1,0-7.077,4.739,4.739,0,0,1,3.394-1.537,6.042,6.042,0,0,1,4.2,1.857l.128.128,2.562-2.946-.1-.1a8.975,8.975,0,0,0-6.725-2.658,8.666,8.666,0,0,0-6.373,2.53,8.574,8.574,0,0,0-2.562,6.341,8.591,8.591,0,0,0,8.774,8.806,8.762,8.762,0,0,0,6.981-3.042l.1-.128L299.283,362Z" transform="translate(-201.258 -294.905)" fill="#fff"/><path d="M346.293,349.985a8.859,8.859,0,0,0-9.095,8.838,8.754,8.754,0,0,0,9.063,8.806,8.912,8.912,0,0,0,6.437-2.5,8.766,8.766,0,0,0,2.69-6.341,8.611,8.611,0,0,0-2.658-6.341A8.754,8.754,0,0,0,346.293,349.985Zm-4.9,8.806a4.972,4.972,0,0,1,1.345-3.587,4.868,4.868,0,0,1,3.523-1.505,5.213,5.213,0,0,1,2.562,9.575,4.89,4.89,0,0,1-7.4-4.451v-.032Z" transform="translate(-236.067 -294.836)" fill="#fff"/><path d="M410.52,360.6c0,2.5-1.153,3.843-3.491,3.843s-3.491-1.409-3.491-3.971V350.8H399.6v9.767c0,4.836,2.722,7.622,7.429,7.622s7.59-2.786,7.59-7.75V350.8h-4.035Z" transform="translate(-278.486 -295.395)" fill="#fff"/><path d="M465.472,360.891l-7.557-9.927-.064-.064H454.2V368h3.971V357.657L466.049,368h3.394V350.9h-3.971Z" transform="translate(-315.602 -295.463)" fill="#fff"/><path d="M520.987,362.063a5.777,5.777,0,0,1-4.291,1.921,4.818,4.818,0,0,1-4.675-5.124,4.924,4.924,0,0,1,1.249-3.523,4.739,4.739,0,0,1,3.394-1.537,6.042,6.042,0,0,1,4.2,1.857l.128.128,2.562-2.946-.128-.1a8.975,8.975,0,0,0-6.725-2.658,8.67,8.67,0,0,0-6.341,2.53,9.131,9.131,0,0,0-.064,12.617,9.3,9.3,0,0,0,13.258-.512l.1-.128L521.083,362Z" transform="translate(-352.03 -294.905)" fill="#fff"/><rect width="4.035" height="17.132" transform="translate(173.151 55.437)" fill="#fff"/><path d="M586.8,364.318V350.9h-4V368h12.361v-3.683Z" transform="translate(-403.02 -295.463)" fill="#fff"/><path d="M140.765,433.525a.991.991,0,0,0-1.025-.929,1.053,1.053,0,0,0-.544.128c-.032.032-.1.032-.128.1l-.128.1a1.043,1.043,0,0,0-.256.608.927.927,0,0,0,.224.769.771.771,0,0,0,.256.192h.128a1.606,1.606,0,0,0,.384.064,1.146,1.146,0,0,0,.8-.352,1.088,1.088,0,0,0,.256-.833" transform="translate(-101.118 -350.996)" fill="#fff"/><path d="M126.972,438.124v-.192a.991.991,0,0,0-.993-.737,1.061,1.061,0,0,0-.9.512v.352h0v.064a1.032,1.032,0,0,0,.192.737.918.918,0,0,0,.608.352h.256a1.023,1.023,0,0,0,.769-.352l.064-.1a.921.921,0,0,0,.16-.64" transform="translate(-91.873 -354.122)" fill="#fff"/><path d="M177.176,426.612a1.163,1.163,0,0,0,.833-.352.885.885,0,0,0,.224-.769v-.224a.935.935,0,0,0-.961-.673,1.163,1.163,0,0,0-.9.384,1.032,1.032,0,0,0-.192.737v.064h0a1.032,1.032,0,0,0,1.025.8" transform="translate(-126.609 -345.557)" fill="#fff"/><path d="M143.643,218.749a1.022,1.022,0,0,0-.256.769.971.971,0,0,0,1.025.929,1.163,1.163,0,0,0,.833-.352.983.983,0,0,0,.256-.769.971.971,0,0,0-1.025-.929,1.11,1.11,0,0,0-.833.352" transform="translate(-104.317 -205.39)" fill="#fff"/><path d="M144.491,227.749a1.022,1.022,0,0,0-.128,1.121,1.062,1.062,0,0,0,.929.608,1.163,1.163,0,0,0,.833-.352,1.054,1.054,0,0,0,.256-.8.991.991,0,0,0-1.025-.929,1.237,1.237,0,0,0-.865.352" transform="translate(-104.908 -211.508)" fill="#fff"/><path d="M145.291,235.952a1.022,1.022,0,0,0-.128,1.121,1.062,1.062,0,0,0,.929.608,1.163,1.163,0,0,0,.833-.352,1.094,1.094,0,0,0,.16-1.121,1.02,1.02,0,0,0-.961-.608,1.22,1.22,0,0,0-.833.352" transform="translate(-105.452 -217.086)" fill="#fff"/><path d="M141.482,197.481a.922.922,0,0,0-.224.8.971.971,0,0,0,1.025.929,1.163,1.163,0,0,0,.833-.352,1.033,1.033,0,0,0,.288-.833.991.991,0,0,0-1.025-.929,1.163,1.163,0,0,0-.833.352" transform="translate(-102.86 -190.911)" fill="#fff"/><path d="M142.591,208.81a1.022,1.022,0,0,0-.128,1.121,1.062,1.062,0,0,0,.929.608,1.163,1.163,0,0,0,.833-.352,1.022,1.022,0,0,0,.256-.769.991.991,0,0,0-1.025-.929,1.087,1.087,0,0,0-.865.32" transform="translate(-103.617 -198.654)" fill="#fff"/><path d="M141.075,186.882a1.163,1.163,0,0,0,.833-.352,1.022,1.022,0,0,0,.128-1.121,1.062,1.062,0,0,0-.929-.608,1.163,1.163,0,0,0-.833.352,1.094,1.094,0,0,0-.16,1.121,1.02,1.02,0,0,0,.961.608" transform="translate(-102.037 -182.553)" fill="#fff"/><path d="M146.776,242.9a1.163,1.163,0,0,0-.833.352,1.054,1.054,0,0,0-.256.8.991.991,0,0,0,1.025.929,1.163,1.163,0,0,0,.833-.352,1.022,1.022,0,0,0,.128-1.121.948.948,0,0,0-.9-.608" transform="translate(-105.881 -222.048)" fill="#fff"/><path d="M135.938,224.4a1.192,1.192,0,0,0-.9.416,1.04,1.04,0,0,0-.192.865.967.967,0,0,0,.993.8,1.163,1.163,0,0,0,.9-.384,1.015,1.015,0,0,0,.192-.865.976.976,0,0,0-.993-.833" transform="translate(-98.501 -209.472)" fill="#fff"/><path d="M136.641,233.38a1.04,1.04,0,0,0-.192.865,1.025,1.025,0,0,0,.993.833,1.191,1.191,0,0,0,.9-.416,1.04,1.04,0,0,0,.192-.865.978.978,0,0,0-1.025-.8,1.144,1.144,0,0,0-.865.384" transform="translate(-99.589 -215.314)" fill="#fff"/><path d="M139.242,242.577a1.191,1.191,0,0,0,.9-.416,1.04,1.04,0,0,0,.192-.865.967.967,0,0,0-.993-.8,1.163,1.163,0,0,0-.9.384,1.04,1.04,0,0,0-.192.865.926.926,0,0,0,.993.833" transform="translate(-100.812 -220.412)" fill="#fff"/><path d="M131.141,205.184a1.015,1.015,0,0,0-.192.865,1,1,0,0,0,.993.833,1.191,1.191,0,0,0,.9-.416.971.971,0,0,0,.192-.833,1.025,1.025,0,0,0-.993-.833,1.163,1.163,0,0,0-.9.384" transform="translate(-95.85 -196.149)" fill="#fff"/><path d="M133.241,215.576a1.04,1.04,0,0,0-.192.865.967.967,0,0,0,.993.8,1.163,1.163,0,0,0,.9-.384,1.015,1.015,0,0,0,.192-.865.978.978,0,0,0-1.025-.8,1.043,1.043,0,0,0-.865.384" transform="translate(-97.277 -203.21)" fill="#fff"/><path d="M128.741,193.516a.971.971,0,0,0-.192.833,1,1,0,0,0,.993.833,1.163,1.163,0,0,0,.9-.384,1.04,1.04,0,0,0,.192-.865,1.025,1.025,0,0,0-.993-.833,1.092,1.092,0,0,0-.9.416" transform="translate(-94.218 -188.196)" fill="#fff"/><path d="M125.915,222.1a1.183,1.183,0,0,0-.929.448.911.911,0,0,0-.128.9.99.99,0,0,0,.961.737,1.183,1.183,0,0,0,.929-.448,1.052,1.052,0,0,0-.833-1.633" transform="translate(-91.681 -207.909)" fill="#fff"/><path d="M127.717,231.241a1.052,1.052,0,0,0,.833,1.633,1.184,1.184,0,0,0,.929-.448,1.052,1.052,0,0,0-.833-1.633,1.094,1.094,0,0,0-.929.448" transform="translate(-93.546 -213.815)" fill="#fff"/><path d="M131.049,240.582a1.184,1.184,0,0,0,.929-.448,1.052,1.052,0,0,0-.833-1.633,1.125,1.125,0,0,0-.929.48,1,1,0,0,0-.128.9.937.937,0,0,0,.961.7" transform="translate(-95.246 -219.057)" fill="#fff"/><path d="M118.517,202.248a1,1,0,0,0-.128.9,1.029,1.029,0,0,0,.961.737,1.184,1.184,0,0,0,.929-.448,1.051,1.051,0,0,0-.833-1.633,1.184,1.184,0,0,0-.929.448" transform="translate(-87.292 -194.109)" fill="#fff"/><path d="M121.917,212.948a1,1,0,0,0-.128.9.962.962,0,0,0,.961.7,1.184,1.184,0,0,0,.929-.448,1.046,1.046,0,0,0,.064-1.057,1.013,1.013,0,0,0-.9-.544,1.184,1.184,0,0,0-.929.448" transform="translate(-89.604 -201.383)" fill="#fff"/><path d="M115.657,191.949a1.184,1.184,0,0,0,.929-.448,1.046,1.046,0,0,0,.064-1.057.957.957,0,0,0-.9-.544,1.184,1.184,0,0,0-.929.448,1.041,1.041,0,0,0-.064,1.057,1.013,1.013,0,0,0,.9.544" transform="translate(-84.784 -186.02)" fill="#fff"/><path d="M133.249,247.682a1.184,1.184,0,0,0,.929-.448,1.052,1.052,0,0,0-.833-1.633,1.183,1.183,0,0,0-.929.448,1.052,1.052,0,0,0,.833,1.633" transform="translate(-96.741 -223.883)" fill="#fff"/><path d="M119.006,229.7a1.171,1.171,0,0,0-.961.512,1.021,1.021,0,0,0,0,.961.976.976,0,0,0,.929.608,1.171,1.171,0,0,0,.961-.512,1.029,1.029,0,0,0-.865-1.569" transform="translate(-87.013 -213.075)" fill="#fff"/><path d="M121.385,238.212a1.029,1.029,0,0,0,.865,1.569,1.171,1.171,0,0,0,.961-.512,1.029,1.029,0,0,0-.865-1.569,1.129,1.129,0,0,0-.961.512" transform="translate(-89.264 -218.513)" fill="#fff"/><path d="M126.272,246.3a1.121,1.121,0,0,0,.064-.961,1,1,0,0,0-.929-.64,1.171,1.171,0,0,0-.961.512.94.94,0,0,0-.064.961,1,1,0,0,0,.929.64,1.171,1.171,0,0,0,.961-.512" transform="translate(-91.333 -223.272)" fill="#fff"/><path d="M109.985,211.907a1.061,1.061,0,0,0-.032,1.025,1,1,0,0,0,.865.544,1.171,1.171,0,0,0,.961-.512.945.945,0,0,0,.064-.961.932.932,0,0,0-.929-.608,1.115,1.115,0,0,0-.929.512" transform="translate(-81.515 -200.63)" fill="#fff"/><path d="M115.119,221a1.171,1.171,0,0,0-.961.512.984.984,0,0,0-.032,1.025,1.013,1.013,0,0,0,.9.544,1.171,1.171,0,0,0,.961-.512,1.061,1.061,0,0,0,.032-1.025,1.013,1.013,0,0,0-.9-.544" transform="translate(-84.343 -207.161)" fill="#fff"/><path d="M105.245,200.912a1.021,1.021,0,0,0,0,.961,1,1,0,0,0,.929.64,1.171,1.171,0,0,0,.961-.512,1.021,1.021,0,0,0,0-.961,1,1,0,0,0-.929-.64,1.171,1.171,0,0,0-.961.512" transform="translate(-78.312 -193.158)" fill="#fff"/><path d="M100.879,190.582a1.171,1.171,0,0,0,.961-.512,1.061,1.061,0,0,0,.032-1.025,1,1,0,0,0-.865-.544,1.129,1.129,0,0,0-.961.512.94.94,0,0,0-.064.961.868.868,0,0,0,.9.608" transform="translate(-74.746 -185.069)" fill="#fff"/><path d="M126.85,182.582a1.171,1.171,0,0,0,.961-.512.94.94,0,0,0,.064-.961.976.976,0,0,0-.929-.608,1.171,1.171,0,0,0-.961.512,1.061,1.061,0,0,0-.032,1.025,1.125,1.125,0,0,0,.9.544" transform="translate(-92.391 -179.63)" fill="#fff"/><path d="M108.487,229.5a1.17,1.17,0,0,0-.993.576.983.983,0,0,0,0,1.025.972.972,0,0,0,.865.512,1.17,1.17,0,0,0,.993-.576.926.926,0,0,0,0-.993,1.119,1.119,0,0,0-.865-.544" transform="translate(-79.824 -212.939)" fill="#fff"/><path d="M111.894,238.076a.926.926,0,0,0,0,.993.972.972,0,0,0,.865.512,1.17,1.17,0,0,0,.993-.576.927.927,0,0,0,0-.993.972.972,0,0,0-.865-.512,1.212,1.212,0,0,0-.993.576" transform="translate(-82.815 -218.377)" fill="#fff"/><path d="M117.91,246.137a.983.983,0,0,0,0-1.025.972.972,0,0,0-.865-.512,1.17,1.17,0,0,0-.993.576,1.061,1.061,0,0,0,.032,1.025,1.009,1.009,0,0,0,.865.512,1.1,1.1,0,0,0,.961-.576" transform="translate(-85.661 -223.204)" fill="#fff"/><path d="M96.994,212.6a.972.972,0,0,0,.865.512,1.131,1.131,0,0,0,.993-.576.926.926,0,0,0,0-.993.964.964,0,0,0-.865-.544,1.17,1.17,0,0,0-.993.576.983.983,0,0,0,0,1.025" transform="translate(-72.687 -200.363)" fill="#fff"/><path d="M103.487,220.8a1.17,1.17,0,0,0-.993.576.983.983,0,0,0,0,1.025.972.972,0,0,0,.865.512,1.17,1.17,0,0,0,.993-.576.926.926,0,0,0,0-.993.944.944,0,0,0-.865-.544" transform="translate(-76.425 -207.025)" fill="#fff"/><path d="M91.659,202.382a1.17,1.17,0,0,0,.993-.576.926.926,0,0,0,0-.993.972.972,0,0,0-.865-.512,1.17,1.17,0,0,0-.993.576.926.926,0,0,0,0,.993,1.083,1.083,0,0,0,.865.512" transform="translate(-68.472 -193.09)" fill="#fff"/><path d="M120.391,253.081a1.17,1.17,0,0,0,.993-.576,1,1,0,0,0-.032-.993,1.009,1.009,0,0,0-.865-.512,1.17,1.17,0,0,0-.993.576.926.926,0,0,0,0,.993.986.986,0,0,0,.9.512" transform="translate(-87.982 -227.554)" fill="#fff"/><path d="M104.109,240.005a1.046,1.046,0,0,0-.1-1.057.913.913,0,0,0-.8-.448,1.178,1.178,0,0,0-1.025.64,1.046,1.046,0,0,0,.1,1.057,1,1,0,0,0,.8.416,1.172,1.172,0,0,0,1.025-.608" transform="translate(-76.247 -219.057)" fill="#fff"/><path d="M108.034,247.746a1.178,1.178,0,0,0,1.025-.64,1,1,0,0,0-.064-.993,1.171,1.171,0,0,0-.865-.512,1.13,1.13,0,0,0-.993.64.924.924,0,0,0,.1,1.057,1.135,1.135,0,0,0,.8.448" transform="translate(-79.596 -223.883)" fill="#fff"/><path d="M113.627,253.305a1.046,1.046,0,0,0-.1-1.057,1.034,1.034,0,0,0-.8-.448,1.13,1.13,0,0,0-.993.64.919.919,0,0,0,.1,1.057,1.034,1.034,0,0,0,.8.448,1.193,1.193,0,0,0,.993-.64" transform="translate(-82.723 -228.098)" fill="#fff"/><path d="M91.355,224.374a1.161,1.161,0,0,0,.993-.608,1.039,1.039,0,0,0-.1-1.057.921.921,0,0,0-.8-.416,1.13,1.13,0,0,0-.993.64.988.988,0,0,0,.9,1.441" transform="translate(-68.265 -208.037)" fill="#fff"/><path d="M97.735,230.7a1.256,1.256,0,0,0-1.025.608,1.092,1.092,0,0,0,.064.993,1.17,1.17,0,0,0,.833.512,1.256,1.256,0,0,0,1.025-.608,1.046,1.046,0,0,0-.1-1.057,1.076,1.076,0,0,0-.8-.448" transform="translate(-72.531 -213.755)" fill="#fff"/><path d="M84.584,214.546a1.178,1.178,0,0,0,1.025-.64,1.046,1.046,0,0,0-.1-1.057,1.034,1.034,0,0,0-.8-.448,1.178,1.178,0,0,0-1.025.64,1.046,1.046,0,0,0,.1,1.057,1.076,1.076,0,0,0,.8.448" transform="translate(-63.671 -201.315)" fill="#fff"/><path d="M77.087,204.214a1.256,1.256,0,0,0,1.025-.608,1,1,0,0,0-.064-.993,1.066,1.066,0,0,0-1.889.128.924.924,0,0,0,.1,1.025,1.006,1.006,0,0,0,.833.448" transform="translate(-58.544 -194.313)" fill="#fff"/><path d="M92.015,241.172a1.037,1.037,0,0,0,.16,1.089,1.023,1.023,0,0,0,.769.352,1.232,1.232,0,0,0,1.025-.672,1.038,1.038,0,0,0-.16-1.089,1.023,1.023,0,0,0-.769-.352,1.116,1.116,0,0,0-1.025.672" transform="translate(-69.341 -220.417)" fill="#fff"/><path d="M100.071,248.741a1.026,1.026,0,0,0-.1-.961,1,1,0,0,0-.833-.48,1.171,1.171,0,0,0-1.025.672.985.985,0,0,0,.192,1.089.974.974,0,0,0,.769.352,1.227,1.227,0,0,0,.993-.673" transform="translate(-73.49 -225.039)" fill="#fff"/><path d="M105.371,254.841a1.026,1.026,0,0,0-.1-.961,1,1,0,0,0-.833-.48,1.171,1.171,0,0,0-1.025.673.985.985,0,0,0,.192,1.089.974.974,0,0,0,.769.352,1.124,1.124,0,0,0,.993-.673" transform="translate(-77.093 -229.186)" fill="#fff"/><path d="M78.843,224.5a1.171,1.171,0,0,0-1.025.673.985.985,0,0,0,.192,1.089.974.974,0,0,0,.769.352,1.232,1.232,0,0,0,1.025-.673.925.925,0,0,0-.192-1.057.955.955,0,0,0-.769-.384" transform="translate(-59.691 -209.54)" fill="#fff"/><path d="M86.339,232.9a1.233,1.233,0,0,0-1.025.673,1.037,1.037,0,0,0,.16,1.089,1.023,1.023,0,0,0,.769.352,1.232,1.232,0,0,0,1.025-.672,1.037,1.037,0,0,0-.16-1.089,1.076,1.076,0,0,0-.769-.352" transform="translate(-64.786 -215.25)" fill="#fff"/><path d="M70.547,217.314a1.171,1.171,0,0,0,1.025-.673,1.026,1.026,0,0,0-.1-.961,1,1,0,0,0-.833-.48,1.171,1.171,0,0,0-1.025.672.985.985,0,0,0,.192,1.089.911.911,0,0,0,.737.352" transform="translate(-54.117 -203.218)" fill="#fff"/><path d="M109.266,261.014a1.232,1.232,0,0,0,1.025-.672,1.037,1.037,0,0,0-.16-1.089,1.023,1.023,0,0,0-.769-.352,1.171,1.171,0,0,0-1.025.673,1.026,1.026,0,0,0,.1.961,1.131,1.131,0,0,0,.833.48" transform="translate(-80.443 -232.924)" fill="#fff"/><path d="M88.641,251.037a.979.979,0,0,0,.288,1.153,1.393,1.393,0,0,0,.672.288,1.2,1.2,0,0,0,1.025-.737.936.936,0,0,0-.288-1.153.922.922,0,0,0-.672-.288,1.2,1.2,0,0,0-1.025.737" transform="translate(-67.055 -227.078)" fill="#fff"/><path d="M96.063,256.3a1.237,1.237,0,0,0-1.025.737A1.043,1.043,0,0,0,96,258.446a1.237,1.237,0,0,0,1.025-.737,1.034,1.034,0,0,0-.128-.961,1.006,1.006,0,0,0-.833-.448" transform="translate(-71.404 -231.157)" fill="#fff"/><path d="M102.7,262.741a.936.936,0,0,0-.288-1.153.922.922,0,0,0-.672-.288,1.2,1.2,0,0,0-1.025.737.936.936,0,0,0,.288,1.153.922.922,0,0,0,.672.288,1.319,1.319,0,0,0,1.025-.737" transform="translate(-75.25 -234.556)" fill="#fff"/><path d="M73.811,237.437a.936.936,0,0,0,.288,1.153.922.922,0,0,0,.672.288,1.2,1.2,0,0,0,1.025-.737.936.936,0,0,0-.288-1.153.922.922,0,0,0-.672-.288,1.237,1.237,0,0,0-1.025.737" transform="translate(-56.965 -217.833)" fill="#fff"/><path d="M81.754,244.469a1,1,0,0,0,.288,1.121.922.922,0,0,0,.672.288,1.2,1.2,0,0,0,1.025-.737.969.969,0,0,0-.256-1.153,1.067,1.067,0,0,0-.672-.288,1.2,1.2,0,0,0-1.025.737" transform="translate(-62.378 -222.592)" fill="#fff"/><path d="M66.071,230.678a1.2,1.2,0,0,0,1.025-.737.936.936,0,0,0-.288-1.153.922.922,0,0,0-.672-.288,1.2,1.2,0,0,0-1.025.737.936.936,0,0,0,.288,1.153.872.872,0,0,0,.672.288" transform="translate(-51.051 -212.259)" fill="#fff"/><path d="M56.539,222.046a1.2,1.2,0,0,0,1.025-.737.992.992,0,0,0-.256-1.121,1.067,1.067,0,0,0-.672-.288,1.2,1.2,0,0,0-1.025.737.936.936,0,0,0,.288,1.153.922.922,0,0,0,.672.288" transform="translate(-44.593 -206.413)" fill="#fff"/><path d="M79.589,256.44a1.011,1.011,0,0,0,.608.224,1.172,1.172,0,0,0,1.025-.8.974.974,0,0,0-.384-1.153.815.815,0,0,0-.544-.128,1.172,1.172,0,0,0-1.025.8.961.961,0,0,0,.384,1.153" transform="translate(-60.694 -229.984)" fill="#fff"/><path d="M88.387,261.077A.974.974,0,0,0,88,259.924a1.4,1.4,0,0,0-.608-.224,1.188,1.188,0,0,0-1.025.769.961.961,0,0,0,.384,1.153.846.846,0,0,0,.608.224,1.1,1.1,0,0,0,1.025-.769" transform="translate(-65.52 -233.468)" fill="#fff"/><path d="M94.6,265.024a1.268,1.268,0,0,0-.608-.224,1.172,1.172,0,0,0-1.025.8.974.974,0,0,0,.384,1.153,1.4,1.4,0,0,0,.608.224,1.172,1.172,0,0,0,1.025-.8.961.961,0,0,0-.384-1.153" transform="translate(-70.007 -236.935)" fill="#fff"/><path d="M62.253,243.553a1.011,1.011,0,0,0,.608.224,1.172,1.172,0,0,0,1.025-.8.961.961,0,0,0-.384-1.153,1.268,1.268,0,0,0-.608-.224,1.188,1.188,0,0,0-1.025.769.991.991,0,0,0,.384,1.185" transform="translate(-48.866 -221.164)" fill="#fff"/><path d="M70.869,249.2a.974.974,0,0,0,.384,1.153,1.011,1.011,0,0,0,.608.224,1.172,1.172,0,0,0,1.025-.8.974.974,0,0,0-.384-1.153,1.4,1.4,0,0,0-.608-.224,1.264,1.264,0,0,0-1.025.8" transform="translate(-54.984 -225.787)" fill="#fff"/><path d="M52.253,236.253a1.011,1.011,0,0,0,.608.224,1.172,1.172,0,0,0,1.025-.8.974.974,0,0,0-.384-1.153,1.011,1.011,0,0,0-.608-.224,1.172,1.172,0,0,0-1.025.8.974.974,0,0,0,.384,1.153" transform="translate(-42.068 -216.202)" fill="#fff"/><path d="M99.253,270.921a1.4,1.4,0,0,0,.608.224,1.229,1.229,0,0,0,1.025-.769.961.961,0,0,0-.384-1.153,1.092,1.092,0,0,0-.608-.224,1.172,1.172,0,0,0-1.025.8.919.919,0,0,0,.384,1.121" transform="translate(-74.017 -239.79)" fill="#fff"/><path d="M78.362,266.685a1.08,1.08,0,0,0,.544.16,1.126,1.126,0,0,0,1.025-.833.943.943,0,0,0-.48-1.153,1.08,1.08,0,0,0-.544-.16,1.168,1.168,0,0,0-1.025.833.924.924,0,0,0,.48,1.153" transform="translate(-59.755 -236.867)" fill="#fff"/><path d="M86.851,269.36a1.08,1.08,0,0,0-.544-.16,1.126,1.126,0,0,0-1.025.833.924.924,0,0,0,.48,1.153,1.08,1.08,0,0,0,.544.16,1.168,1.168,0,0,0,1.025-.833.994.994,0,0,0-.48-1.153" transform="translate(-64.785 -239.926)" fill="#fff"/><path d="M93.659,273.16a1.08,1.08,0,0,0-.544-.16,1.126,1.126,0,0,0-1.025.833.943.943,0,0,0,.48,1.153,1.08,1.08,0,0,0,.544.16,1.168,1.168,0,0,0,1.025-.833,1.026,1.026,0,0,0-.48-1.153" transform="translate(-69.416 -242.509)" fill="#fff"/><path d="M62.127,254.76a1.08,1.08,0,0,0-.544-.16,1.058,1.058,0,0,0-.993.833.957.957,0,0,0,.48,1.153,1.08,1.08,0,0,0,.544.16,1.168,1.168,0,0,0,1.025-.833.945.945,0,0,0-.512-1.153" transform="translate(-48.003 -230.001)" fill="#fff"/><path d="M69.69,260.733a.943.943,0,0,0,.48,1.153,1.08,1.08,0,0,0,.544.16,1.168,1.168,0,0,0,1.025-.833.957.957,0,0,0-.48-1.153,1.079,1.079,0,0,0-.544-.16,1.126,1.126,0,0,0-1.025.833" transform="translate(-54.189 -233.604)" fill="#fff"/><path d="M50.8,250.285a1.08,1.08,0,0,0,.544.16,1.168,1.168,0,0,0,1.025-.833.957.957,0,0,0-.48-1.153,1.08,1.08,0,0,0-.544-.16,1.168,1.168,0,0,0-1.025.833.962.962,0,0,0,.48,1.153" transform="translate(-41.028 -225.719)" fill="#fff"/><path d="M40.1,244.285a1.08,1.08,0,0,0,.544.16,1.168,1.168,0,0,0,1.025-.833.957.957,0,0,0-.48-1.153,1.079,1.079,0,0,0-.544-.16,1.126,1.126,0,0,0-1.025.833.978.978,0,0,0,.48,1.153" transform="translate(-33.755 -221.64)" fill="#fff"/><path d="M69.962,272.717a1.13,1.13,0,0,0,.448.1,1.089,1.089,0,0,0,.993-.865.964.964,0,0,0-.576-1.153,1.023,1.023,0,0,0-.448-.1,1.091,1.091,0,0,0-1.025.9.979.979,0,0,0,.608,1.121" transform="translate(-53.981 -240.945)" fill="#fff"/><path d="M78.206,276.517a1.051,1.051,0,0,0,.929,0,1.125,1.125,0,0,0,.544-.769A.964.964,0,0,0,79.1,274.6a1.131,1.131,0,0,0-.448-.1,1.1,1.1,0,0,0-1.025.865,1,1,0,0,0,.576,1.153" transform="translate(-59.599 -243.529)" fill="#fff"/><path d="M86.087,279.919a1.031,1.031,0,0,0,.993-.9.964.964,0,0,0-.576-1.153,1.018,1.018,0,0,0-1.473.769.964.964,0,0,0,.576,1.153,1.342,1.342,0,0,0,.48.128" transform="translate(-64.629 -245.746)" fill="#fff"/><path d="M50.562,263.917a1.052,1.052,0,0,0,.929,0,1,1,0,0,0,.512-.769A.964.964,0,0,0,51.427,262a1.023,1.023,0,0,0-.448-.1,1.1,1.1,0,0,0-1.025.865,1.018,1.018,0,0,0,.608,1.153" transform="translate(-40.793 -234.964)" fill="#fff"/><path d="M60.843,268.323a1.023,1.023,0,0,0,.448.1,1.092,1.092,0,0,0,1.025-.9.964.964,0,0,0-.576-1.153,1.052,1.052,0,0,0-.929,0,1,1,0,0,0-.512.769.94.94,0,0,0,.544,1.185" transform="translate(-47.807 -237.928)" fill="#fff"/><path d="M39.243,258.723a1.13,1.13,0,0,0,.448.1,1.091,1.091,0,0,0,1.025-.9.964.964,0,0,0-.576-1.153,1.052,1.052,0,0,0-.929,0,1,1,0,0,0-.512.769.983.983,0,0,0,.544,1.185" transform="translate(-33.125 -231.403)" fill="#fff"/><path d="M92.366,283.017a1.052,1.052,0,0,0,.929,0,1,1,0,0,0,.512-.769.964.964,0,0,0-.576-1.153,1.023,1.023,0,0,0-.448-.1,1.091,1.091,0,0,0-1.025.9,1.015,1.015,0,0,0,.608,1.121" transform="translate(-69.211 -247.947)" fill="#fff"/><path d="M71.806,281.064a1.361,1.361,0,0,0-.352-.064,1.061,1.061,0,0,0-.993.929.98.98,0,0,0,.7,1.153,1.151,1.151,0,0,0,.352.064,1.094,1.094,0,0,0,1.025-.929,1.107,1.107,0,0,0-.737-1.153" transform="translate(-54.736 -247.947)" fill="#fff"/><path d="M79.618,286.014a1.061,1.061,0,0,0,.993-.929,1.129,1.129,0,0,0-.256-.833,1.041,1.041,0,0,0-.8-.352,1.061,1.061,0,0,0-.993.929.988.988,0,0,0,.672,1.153,1.362,1.362,0,0,0,.352.064" transform="translate(-60.242 -249.918)" fill="#fff"/><path d="M87.238,286.364a1.151,1.151,0,0,0-.352-.064,1.094,1.094,0,0,0-1.025.929.981.981,0,0,0,.7,1.153.658.658,0,0,0,.352,0,1.122,1.122,0,0,0,1.025-.929.98.98,0,0,0-.7-1.153" transform="translate(-65.204 -251.55)" fill="#fff"/><path d="M52.446,276.746a1.061,1.061,0,0,0,.993-.929.981.981,0,0,0-.7-1.153,1.362,1.362,0,0,0-.352-.064,1.061,1.061,0,0,0-.993.929,1.081,1.081,0,0,0,.288.8,1.023,1.023,0,0,0,.769.352" transform="translate(-41.781 -243.597)" fill="#fff"/><path d="M62.832,278.037a.9.9,0,0,0-.9.1.93.93,0,0,0-.448.769,1.129,1.129,0,0,0,.256.833,1.041,1.041,0,0,0,.8.352,1.061,1.061,0,0,0,.993-.929A.96.96,0,0,0,62.864,278" transform="translate(-48.644 -245.881)" fill="#fff"/><path d="M41.485,270.949a.655.655,0,0,0-.352,0,1.061,1.061,0,0,0-.993.929.96.96,0,0,0,.672,1.153,1.152,1.152,0,0,0,.352.064,1.094,1.094,0,0,0,1.025-.929.988.988,0,0,0-.672-1.153" transform="translate(-34.118 -241.098)" fill="#fff"/><path d="M28.412,268.867a1.364,1.364,0,0,0,.352.064,1.061,1.061,0,0,0,.993-.929.988.988,0,0,0-.672-1.153.655.655,0,0,0-.352,0,1.061,1.061,0,0,0-.993.929.96.96,0,0,0,.672,1.153" transform="translate(-25.689 -238.311)" fill="#fff"/><path d="M64.515,289.2h-.256a1,1,0,0,0-.993.993.987.987,0,0,0,.8,1.153h.256a1.038,1.038,0,0,0,.993-.961,1,1,0,0,0-.8-1.185" transform="translate(-49.847 -253.521)" fill="#fff"/><path d="M73.159,290.9a1.043,1.043,0,0,0-.993.993.986.986,0,0,0,.8,1.153h.256a1.043,1.043,0,0,0,.993-.993.987.987,0,0,0-.8-1.153h-.256" transform="translate(-55.897 -254.677)" fill="#fff"/><path d="M82.1,293.853a.857.857,0,0,0-.16-.737.951.951,0,0,0-.64-.416h-.256a1.014,1.014,0,0,0-.993.961.857.857,0,0,0,.16.737.951.951,0,0,0,.64.416H81.1a.991.991,0,0,0,.993-.961" transform="translate(-61.249 -255.9)" fill="#fff"/><path d="M43.341,284.549a1.014,1.014,0,0,0-.993.961.857.857,0,0,0,.16.737,1.077,1.077,0,0,0,.64.416H43.4a1.1,1.1,0,0,0,1.025-.961.987.987,0,0,0-.8-1.153.444.444,0,0,0-.288,0" transform="translate(-35.621 -250.343)" fill="#fff"/><path d="M54.167,289.014h.256a1.038,1.038,0,0,0,.993-.961.987.987,0,0,0-.8-1.153h-.256a1.014,1.014,0,0,0-.993.961,1,1,0,0,0,.8,1.153" transform="translate(-43.117 -251.958)" fill="#fff"/><path d="M31.141,281.9a1,1,0,0,0-.993.993.857.857,0,0,0,.16.737.951.951,0,0,0,.64.416H31.2a1.043,1.043,0,0,0,.993-.993.987.987,0,0,0-.8-1.153h-.256" transform="translate(-27.328 -248.559)" fill="#fff"/><path d="M88.323,296.346a1,1,0,0,0,.993-.993.986.986,0,0,0-.8-1.153h-.256a1.038,1.038,0,0,0-.993.961.987.987,0,0,0,.8,1.153l.256.032" transform="translate(-66.161 -256.92)" fill="#fff"/><path d="M66.387,299.908a1.014,1.014,0,0,0,.224.737,1.067,1.067,0,0,0,.7.352h.128a1.032,1.032,0,0,0,1.025-1.025,1.014,1.014,0,0,0-.224-.737,1.08,1.08,0,0,0-1.505-.1.845.845,0,0,0-.352.769" transform="translate(-51.975 -260.099)" fill="#fff"/><path d="M77.068,301.172a1.014,1.014,0,0,0-.224-.737,1.068,1.068,0,0,0-.7-.352,1,1,0,0,0-1.153.993,1.014,1.014,0,0,0,.224.737,1.067,1.067,0,0,0,.7.352h.128a1.048,1.048,0,0,0,1.025-.993" transform="translate(-57.821 -260.914)" fill="#fff"/><path d="M83.672,300.783a1.107,1.107,0,0,0-.833.224,1.139,1.139,0,0,0-.128,1.505,1.068,1.068,0,0,0,.7.352h.128a1.048,1.048,0,0,0,1.025-.993,1.014,1.014,0,0,0-.224-.737,1.152,1.152,0,0,0-.672-.352" transform="translate(-62.919 -261.39)" fill="#fff"/><path d="M46.387,297.808a1.014,1.014,0,0,0,.224.737,1.068,1.068,0,0,0,.7.352h.16a1.053,1.053,0,0,0,1.025-1.025,1.014,1.014,0,0,0-.224-.736.85.85,0,0,0-.7-.352.943.943,0,0,0-.8.256,1.186,1.186,0,0,0-.384.769" transform="translate(-38.379 -258.671)" fill="#fff"/><path d="M57.087,298.925a1.014,1.014,0,0,0,.224.737,1.067,1.067,0,0,0,.7.352h.128a1,1,0,0,0,.993-1.025.891.891,0,0,0-.224-.737,1.067,1.067,0,0,0-.7-.352H58.08a1,1,0,0,0-.993,1.025" transform="translate(-45.653 -259.435)" fill="#fff"/><path d="M34.587,296.208a1.014,1.014,0,0,0,.224.737,1.067,1.067,0,0,0,.7.352h.128a1.053,1.053,0,0,0,1.025-1.025,1.157,1.157,0,0,0-.192-.8,1.04,1.04,0,0,0-.7-.384,1.054,1.054,0,0,0-.8.256,1.023,1.023,0,0,0-.352.769" transform="translate(-30.358 -257.519)" fill="#fff"/><path d="M22.912,296.1h.128a1.053,1.053,0,0,0,1.025-1.025,1.014,1.014,0,0,0-.224-.737,1.068,1.068,0,0,0-.7-.352,1,1,0,0,0-1.153.993.891.891,0,0,0,.224.737.88.88,0,0,0,.7.384" transform="translate(-21.789 -256.767)" fill="#fff"/><path d="M62.214,310.149a1.014,1.014,0,0,0,.737-.288,1.069,1.069,0,0,0,.288-.737,1.012,1.012,0,0,0-1.025-1.025,1.032,1.032,0,0,0-1.025,1.025,1.01,1.01,0,0,0,.288.769,1.081,1.081,0,0,0,.737.256Z" transform="translate(-48.443 -266.369)" fill="#fff"/><path d="M71.157,307.9a1.057,1.057,0,1,0,0,2.114,1.014,1.014,0,0,0,.737-.288,1.069,1.069,0,0,0,.288-.737,1.148,1.148,0,0,0-.288-.769.927.927,0,0,0-.737-.32" transform="translate(-54.503 -266.233)" fill="#fff"/><path d="M80.439,308.736a1.12,1.12,0,0,0-.48-.993.965.965,0,0,0-1.089,0,1.12,1.12,0,0,0-.48.993,1.01,1.01,0,0,0,.288.769,1.1,1.1,0,0,0,.737.32,1.148,1.148,0,0,0,.769-.288,1.4,1.4,0,0,0,.256-.8" transform="translate(-60.135 -266.012)" fill="#fff"/><path d="M40.757,307.8a1.057,1.057,0,1,0,1.057,1.057,1.066,1.066,0,0,0-1.057-1.057" transform="translate(-33.838 -266.165)" fill="#fff"/><path d="M50.99,308.9a1.01,1.01,0,0,0,.288.769,1.057,1.057,0,0,0,1.729-.32,1.03,1.03,0,0,0-.224-1.153,1.041,1.041,0,0,0-1.153-.256,1,1,0,0,0-.64.961" transform="translate(-41.509 -266.207)" fill="#fff"/><path d="M28.257,307.7a1.057,1.057,0,1,0,0,2.114,1.015,1.015,0,0,0,.737-.288,1.069,1.069,0,0,0,.288-.737,1.147,1.147,0,0,0-.288-.769,1.042,1.042,0,0,0-.737-.32" transform="translate(-25.341 -266.097)" fill="#fff"/><path d="M87.682,309.125a1.041,1.041,0,1,0-1.057,1.057,1.1,1.1,0,0,0,1.057-1.057" transform="translate(-65.039 -266.369)" fill="#fff"/><path d="M67.289,319.2h.128a1.236,1.236,0,0,0,.7-.352,1.139,1.139,0,0,0-.128-1.505,1.054,1.054,0,0,0-.8-.256,1.024,1.024,0,0,0-.9,1.089,1.048,1.048,0,0,0,.993,1.025" transform="translate(-51.916 -272.474)" fill="#fff"/><path d="M76.865,317.112a1.023,1.023,0,0,0-.352-.769,1.054,1.054,0,0,0-.8-.256,1.236,1.236,0,0,0-.7.352.891.891,0,0,0-.224.737,1.012,1.012,0,0,0,1.025,1.025h.128a1.236,1.236,0,0,0,.7-.352.972.972,0,0,0,.224-.737" transform="translate(-57.681 -271.794)" fill="#fff"/><path d="M83.416,315.3a1.235,1.235,0,0,0-.7.352,1.014,1.014,0,0,0-.224.737,1.032,1.032,0,0,0,1.025,1.025h.128a1.068,1.068,0,0,0,.929-1.153,1.093,1.093,0,0,0-1.153-.961" transform="translate(-62.919 -271.259)" fill="#fff"/><path d="M46.2,319.985a1.032,1.032,0,0,0,1.025,1.025h.16a1.093,1.093,0,0,0,.961-1.153,1.076,1.076,0,0,0-2.146.128" transform="translate(-38.253 -273.707)" fill="#fff"/><path d="M56.657,318.74a1.053,1.053,0,0,0,1.025,1.025h.128a.993.993,0,0,0,.9-1.153,1.023,1.023,0,0,0-.352-.769,1.054,1.054,0,0,0-.8-.256.993.993,0,0,0-.9,1.153" transform="translate(-45.351 -272.814)" fill="#fff"/><path d="M36.242,321.025A1.048,1.048,0,0,0,35.25,320h-.128a1.057,1.057,0,1,0,.064,2.114h.128a1.235,1.235,0,0,0,.7-.352.972.972,0,0,0,.224-.737" transform="translate(-30.028 -274.458)" fill="#fff"/><path d="M22.325,321.387a1.051,1.051,0,0,0-.929,1.089,1.012,1.012,0,0,0,1.025,1.025h.128a1.236,1.236,0,0,0,.7-.352.891.891,0,0,0,.224-.737,1.023,1.023,0,0,0-.352-.769,1.054,1.054,0,0,0-.8-.256" transform="translate(-21.395 -275.397)" fill="#fff"/><path d="M64.9,327.693a1.043,1.043,0,0,0-.993-.993h-.256a1,1,0,0,0-.8,1.153,1.067,1.067,0,0,0,.993.993H64.1a.886.886,0,0,0,.64-.416.834.834,0,0,0,.16-.737" transform="translate(-49.557 -279.012)" fill="#fff"/><path d="M73.8,325.893a1.072,1.072,0,0,0-1.025-.993h-.224a1,1,0,0,0-.8,1.153,1.013,1.013,0,0,0,.993.961H73a.886.886,0,0,0,.64-.416.791.791,0,0,0,.16-.7" transform="translate(-55.606 -277.789)" fill="#fff"/><path d="M80.823,323.2h-.256a.987.987,0,0,0-.8,1.153,1.067,1.067,0,0,0,.993.993h.256a.951.951,0,0,0,.64-.416,1.01,1.01,0,0,0,.16-.737,1.067,1.067,0,0,0-.993-.993" transform="translate(-61.063 -276.633)" fill="#fff"/><path d="M43.023,331h-.256a.987.987,0,0,0-.8,1.153,1.067,1.067,0,0,0,.993.993h.256a.886.886,0,0,0,.64-.416,1.058,1.058,0,0,0,.16-.769.971.971,0,0,0-.993-.961" transform="translate(-35.368 -281.935)" fill="#fff"/><path d="M55.016,329.793a1.072,1.072,0,0,0-1.025-.993h-.224a.986.986,0,0,0-.8,1.153,1.043,1.043,0,0,0,.993.993h.224a.986.986,0,0,0,.833-1.153" transform="translate(-42.845 -280.44)" fill="#fff"/><path d="M30.873,333.7h-.224a1,1,0,0,0-.8,1.153,1.013,1.013,0,0,0,.993.961H31.1a.886.886,0,0,0,.64-.416.927.927,0,0,0,.16-.769,1.039,1.039,0,0,0-1.025-.929" transform="translate(-27.124 -283.771)" fill="#fff"/><path d="M89.1,322.693a1.072,1.072,0,0,0-1.025-.993h-.224a1,1,0,0,0-.8,1.153,1.013,1.013,0,0,0,.993.961H88.3a.886.886,0,0,0,.64-.416,1.011,1.011,0,0,0,.16-.7" transform="translate(-66.007 -275.614)" fill="#fff"/><path d="M70.848,336.781a.657.657,0,0,0,.352,0,.98.98,0,0,0,.7-1.153,1,1,0,0,0-1.761-.576,1.054,1.054,0,0,0-.256.8,1,1,0,0,0,.961.929" transform="translate(-54.354 -284.451)" fill="#fff"/><path d="M78.061,333.117a1.061,1.061,0,0,0,.993.929,1.361,1.361,0,0,0,.352-.064.955.955,0,0,0,.7-1.153,1.033,1.033,0,0,0-.993-.929,1.361,1.361,0,0,0-.352.064.98.98,0,0,0-.7,1.153" transform="translate(-59.902 -282.547)" fill="#fff"/><path d="M87.443,330.478a1.039,1.039,0,0,0-1.025-.929.655.655,0,0,0-.352,0,1,1,0,0,0-.7,1.153,1.061,1.061,0,0,0,.993.929,1.361,1.361,0,0,0,.352-.064.98.98,0,0,0,.7-1.153" transform="translate(-64.864 -280.933)" fill="#fff"/><path d="M51.654,342.881h.352a1,1,0,0,0,.7-1.153,1.033,1.033,0,0,0-.993-.929,1.362,1.362,0,0,0-.352.064.98.98,0,0,0-.7,1.153,1.033,1.033,0,0,0,.993.929" transform="translate(-41.277 -288.597)" fill="#fff"/><path d="M62.711,338.329a1.033,1.033,0,0,0-.993-.929h-.352a.98.98,0,0,0-.7,1.153,1.061,1.061,0,0,0,.993.929,1.361,1.361,0,0,0,.352-.064.955.955,0,0,0,.7-1.153" transform="translate(-48.074 -286.286)" fill="#fff"/><path d="M40.218,344.2a1.362,1.362,0,0,0-.352.064.981.981,0,0,0-.7,1.153,1.061,1.061,0,0,0,.993.929.689.689,0,0,0,.352-.064.955.955,0,0,0,.7-1.153,1.034,1.034,0,0,0-.993-.929" transform="translate(-33.459 -290.908)" fill="#fff"/><path d="M28.218,348.049a.658.658,0,0,0-.352,0,.98.98,0,0,0-.7,1.153,1.061,1.061,0,0,0,.993.929.656.656,0,0,0,.352,0,.981.981,0,0,0,.7-1.153,1.061,1.061,0,0,0-.993-.929" transform="translate(-25.302 -293.509)" fill="#fff"/><path d="M69.519,346.946a1.023,1.023,0,0,0,.448-.1.968.968,0,0,0,.608-1.153,1.121,1.121,0,0,0-.993-.9.972.972,0,0,0-.8.384,1.057,1.057,0,0,0-.224.865,1.089,1.089,0,0,0,.961.9" transform="translate(-53.441 -291.316)" fill="#fff"/><path d="M77.823,343.246a1.13,1.13,0,0,0,.448-.1A1.035,1.035,0,0,0,78.88,342a1.091,1.091,0,0,0-1.025-.9.887.887,0,0,0-.416.1.968.968,0,0,0-.608,1.153,1.086,1.086,0,0,0,.993.9" transform="translate(-59.056 -288.801)" fill="#fff"/><path d="M85.282,339.946a.887.887,0,0,0,.416-.1,1.035,1.035,0,0,0,.608-1.153,1.016,1.016,0,0,0-1.441-.8,1.035,1.035,0,0,0-.608,1.153,1.087,1.087,0,0,0,1.025.9" transform="translate(-64.113 -286.558)" fill="#fff"/><path d="M50.05,355.546a1.13,1.13,0,0,0,.448-.1,1.035,1.035,0,0,0,.608-1.153,1.017,1.017,0,0,0-1.441-.8,1.035,1.035,0,0,0-.608,1.153,1.061,1.061,0,0,0,.993.9" transform="translate(-40.185 -297.162)" fill="#fff"/><path d="M60.282,350.946a.972.972,0,0,0,.8-.384,1.057,1.057,0,0,0,.224-.865,1.016,1.016,0,0,0-1.441-.8,1.035,1.035,0,0,0-.608,1.153,1.06,1.06,0,0,0,1.025.9" transform="translate(-47.119 -294.035)" fill="#fff"/><path d="M38.582,360.546a1.129,1.129,0,0,0,.448-.1,1.035,1.035,0,0,0,.608-1.153,1.046,1.046,0,0,0-1.473-.8,1.035,1.035,0,0,0-.608,1.153,1.125,1.125,0,0,0,1.025.9" transform="translate(-32.368 -300.561)" fill="#fff"/><path d="M93.039,335.8a1.091,1.091,0,0,0-1.025-.9,1.023,1.023,0,0,0-.448.1,1.035,1.035,0,0,0-.608,1.153,1.091,1.091,0,0,0,1.025.9,1.023,1.023,0,0,0,.448-.1.953.953,0,0,0,.608-1.153" transform="translate(-68.667 -284.587)" fill="#fff"/><path d="M77.815,353.114a1.343,1.343,0,0,0,.512-.128.957.957,0,0,0,.48-1.153A1.034,1.034,0,0,0,77.782,351a.968.968,0,0,0-.512.16.957.957,0,0,0-.48,1.153,1.172,1.172,0,0,0,1.025.8" transform="translate(-59.015 -295.531)" fill="#fff"/><path d="M85.541,346.7a1.08,1.08,0,0,0-.544.16.994.994,0,0,0-.48,1.153,1.011,1.011,0,0,0,.608.736,1.119,1.119,0,0,0,.961-.032.957.957,0,0,0,.48-1.153,1.283,1.283,0,0,0-1.025-.865" transform="translate(-64.276 -292.608)" fill="#fff"/><path d="M92.242,342.9a1,1,0,0,0-.8.416,1.111,1.111,0,0,0-.192.9,1.1,1.1,0,0,0,1.025.865.968.968,0,0,0,.512-.16.957.957,0,0,0,.48-1.153,1.119,1.119,0,0,0-1.025-.865" transform="translate(-68.863 -290.025)" fill="#fff"/><path d="M60.415,362.978a.968.968,0,0,0,.512-.16.957.957,0,0,0,.48-1.153,1.2,1.2,0,0,0-1.025-.865.968.968,0,0,0-.512.16.957.957,0,0,0-.48,1.153,1.158,1.158,0,0,0,1.025.865" transform="translate(-47.187 -302.193)" fill="#fff"/><path d="M69.515,357.814a1.342,1.342,0,0,0,.512-.128.994.994,0,0,0,.48-1.153,1.168,1.168,0,0,0-1.025-.833.968.968,0,0,0-.512.16.957.957,0,0,0-.48,1.153,1.1,1.1,0,0,0,1.025.8" transform="translate(-53.373 -298.726)" fill="#fff"/><path d="M50.527,368.785a.957.957,0,0,0,.48-1.153,1.034,1.034,0,0,0-1.025-.833.968.968,0,0,0-.512.16.957.957,0,0,0-.48,1.153,1.078,1.078,0,0,0,.576.769,1.026,1.026,0,0,0,.961-.1" transform="translate(-40.118 -306.271)" fill="#fff"/><path d="M38.882,373.2a.968.968,0,0,0-.512.16.957.957,0,0,0-.48,1.153,1.034,1.034,0,0,0,1.025.833,1.342,1.342,0,0,0,.512-.128.957.957,0,0,0,.48-1.153,1.2,1.2,0,0,0-1.025-.865" transform="translate(-32.572 -310.622)" fill="#fff"/><path d="M78.794,363.378a.845.845,0,0,0,.608-.224A.974.974,0,0,0,79.787,362a1.172,1.172,0,0,0-1.025-.8.9.9,0,0,0-.608.224.974.974,0,0,0-.384,1.153,1.161,1.161,0,0,0,1.025.8" transform="translate(-59.674 -302.464)" fill="#fff"/><path d="M85.653,356.292a.974.974,0,0,0-.384,1.153,1.136,1.136,0,0,0,1.025.8,1.054,1.054,0,0,0,.608-.192.974.974,0,0,0,.384-1.153,1.172,1.172,0,0,0-1.025-.8.985.985,0,0,0-.608.192" transform="translate(-64.773 -298.998)" fill="#fff"/><path d="M92.862,351.3a.9.9,0,0,0-.608.224.974.974,0,0,0-.384,1.153,1.172,1.172,0,0,0,1.025.8.9.9,0,0,0,.608-.224.974.974,0,0,0,.384-1.153,1.21,1.21,0,0,0-1.025-.8" transform="translate(-69.259 -295.735)" fill="#fff"/><path d="M62.1,375.753a.974.974,0,0,0,.384-1.153,1.172,1.172,0,0,0-1.025-.8.845.845,0,0,0-.608.224.974.974,0,0,0-.384,1.153,1.137,1.137,0,0,0,1.025.8,1.268,1.268,0,0,0,.608-.224" transform="translate(-47.914 -311.03)" fill="#fff"/><path d="M70.594,369.346a1.054,1.054,0,0,0,.608-.192A.974.974,0,0,0,71.587,368a1.172,1.172,0,0,0-1.025-.8.845.845,0,0,0-.608.224.974.974,0,0,0-.384,1.153,1.128,1.128,0,0,0,1.025.769" transform="translate(-54.1 -306.543)" fill="#fff"/><path d="M52.487,381.9a1.172,1.172,0,0,0-1.025-.8.9.9,0,0,0-.608.224.974.974,0,0,0-.384,1.153,1.172,1.172,0,0,0,1.025.8,1.054,1.054,0,0,0,.608-.192,1.1,1.1,0,0,0,.384-1.185" transform="translate(-41.117 -315.992)" fill="#fff"/><path d="M98.762,347a1.054,1.054,0,0,0-.608.192.974.974,0,0,0-.384,1.153,1.172,1.172,0,0,0,1.025.8.9.9,0,0,0,.608-.224.974.974,0,0,0,.384-1.153A1.151,1.151,0,0,0,98.762,347" transform="translate(-73.27 -292.812)" fill="#fff"/><path d="M89.008,367.489a.947.947,0,0,0,.288-1.153,1.157,1.157,0,0,0-1.025-.737.922.922,0,0,0-.672.288.957.957,0,0,0-.288,1.153,1.144,1.144,0,0,0,1.025.737,1.275,1.275,0,0,0,.672-.288" transform="translate(-66.141 -305.455)" fill="#fff"/><path d="M94.914,360.1a.922.922,0,0,0-.672.288.978.978,0,0,0-.288,1.121,1.144,1.144,0,0,0,1.025.737.922.922,0,0,0,.672-.288.978.978,0,0,0,.288-1.121,1.2,1.2,0,0,0-1.025-.737" transform="translate(-70.671 -301.717)" fill="#fff"/><path d="M100.519,354.664a1.1,1.1,0,0,0-.833.448.971.971,0,0,0-.128.929,1.143,1.143,0,0,0,1.025.737.922.922,0,0,0,.672-.288.957.957,0,0,0,.288-1.153,1.143,1.143,0,0,0-1.025-.737" transform="translate(-74.483 -297.978)" fill="#fff"/><path d="M73.413,380.946a.972.972,0,0,0,.672-.256.957.957,0,0,0,.288-1.153,1.157,1.157,0,0,0-1.025-.736,1.1,1.1,0,0,0-.833.448,1.079,1.079,0,0,0-.128.929,1.2,1.2,0,0,0,1.025.737" transform="translate(-56.023 -314.428)" fill="#fff"/><path d="M81.135,374.046a1.034,1.034,0,0,0,.672-.256.957.957,0,0,0,.288-1.153,1.144,1.144,0,0,0-1.025-.737.922.922,0,0,0-.672.288.957.957,0,0,0-.288,1.153,1.266,1.266,0,0,0,1.025.7" transform="translate(-61.247 -309.738)" fill="#fff"/><path d="M65.4,387.637a1.143,1.143,0,0,0-1.025-.737.922.922,0,0,0-.672.288.957.957,0,0,0-.288,1.153,1.144,1.144,0,0,0,1.025.737,1.1,1.1,0,0,0,.833-.448,1.065,1.065,0,0,0,.128-.929" transform="translate(-49.895 -319.935)" fill="#fff"/><path d="M55.271,395.2a1.034,1.034,0,0,0-.672.256.957.957,0,0,0-.288,1.153,1.144,1.144,0,0,0,1.025.737,1.034,1.034,0,0,0,.672-.256.957.957,0,0,0,.288-1.153,1.2,1.2,0,0,0-1.025-.737" transform="translate(-43.709 -325.577)" fill="#fff"/><path d="M91.443,377.646a.956.956,0,0,0,.833-.48,1.126,1.126,0,0,0,.1-.961,1.2,1.2,0,0,0-1.025-.7.957.957,0,0,0-.737.352.985.985,0,0,0-.192,1.089,1.067,1.067,0,0,0,1.025.7" transform="translate(-68.256 -312.185)" fill="#fff"/><path d="M97.447,368.8a.957.957,0,0,0-.737.352.985.985,0,0,0-.192,1.089,1.116,1.116,0,0,0,1.025.673.911.911,0,0,0,.737-.352.975.975,0,0,0,.192-1.089,1.3,1.3,0,0,0-1.025-.672" transform="translate(-72.403 -307.631)" fill="#fff"/><path d="M102.21,363.084a.985.985,0,0,0-.192,1.089,1.116,1.116,0,0,0,1.025.672.911.911,0,0,0,.737-.352.975.975,0,0,0,.192-1.089,1.2,1.2,0,0,0-1.025-.7,1.112,1.112,0,0,0-.737.384" transform="translate(-76.141 -303.484)" fill="#fff"/><path d="M77.043,393.513a.911.911,0,0,0,.737-.352.975.975,0,0,0,.192-1.089,1.117,1.117,0,0,0-1.025-.672.911.911,0,0,0-.737.352.975.975,0,0,0-.192,1.089,1.232,1.232,0,0,0,1.025.672" transform="translate(-58.467 -322.993)" fill="#fff"/><path d="M84.662,385.214a.911.911,0,0,0,.737-.352.975.975,0,0,0,.192-1.089,1.117,1.117,0,0,0-1.025-.672,1,1,0,0,0-.833.48,1.026,1.026,0,0,0-.1.961,1.19,1.19,0,0,0,1.025.672" transform="translate(-63.653 -317.351)" fill="#fff"/><path d="M69.69,401.272a1.116,1.116,0,0,0-1.025-.672,1,1,0,0,0-.833.48,1.026,1.026,0,0,0-.1.961,1.116,1.116,0,0,0,1.025.672.911.911,0,0,0,.737-.352,1.035,1.035,0,0,0,.192-1.089" transform="translate(-52.844 -329.247)" fill="#fff"/><path d="M107.947,357.4a.911.911,0,0,0-.737.352.975.975,0,0,0-.192,1.089,1.116,1.116,0,0,0,1.025.673.911.911,0,0,0,.737-.352.975.975,0,0,0,.192-1.089,1.21,1.21,0,0,0-1.025-.672" transform="translate(-79.54 -299.881)" fill="#fff"/><path d="M100.655,378.308a.971.971,0,0,0-.1,1.057,1.13,1.13,0,0,0,.993.641,1,1,0,0,0,.8-.416.971.971,0,0,0,.1-1.057,1.13,1.13,0,0,0-.993-.64.854.854,0,0,0-.8.416" transform="translate(-75.13 -313.808)" fill="#fff"/><path d="M106.64,371a1,1,0,0,0-.8.416,1.043,1.043,0,0,0-.128,1.057,1.2,1.2,0,0,0,1.025.641.923.923,0,0,0,.833-.512,1.046,1.046,0,0,0-.929-1.6" transform="translate(-78.65 -309.126)" fill="#fff"/><path d="M111.307,364.6a.923.923,0,0,0-.833.512,1.086,1.086,0,0,0-.064.993,1.13,1.13,0,0,0,.993.64,1,1,0,0,0,.8-.416,1.043,1.043,0,0,0,.128-1.057,1.188,1.188,0,0,0-1.025-.672" transform="translate(-81.844 -304.776)" fill="#fff"/><path d="M89.583,396.046a.923.923,0,0,0,.833-.512,1.076,1.076,0,0,0-.961-1.633.957.957,0,0,0-.8.416.971.971,0,0,0-.1,1.057,1.188,1.188,0,0,0,1.025.672" transform="translate(-66.973 -324.693)" fill="#fff"/><path d="M95.867,387.614a.957.957,0,0,0,.8-.416.971.971,0,0,0,.1-1.057,1.141,1.141,0,0,0-1.025-.64,1.009,1.009,0,0,0-.865.512,1.092,1.092,0,0,0-.064.993,1.345,1.345,0,0,0,1.057.608" transform="translate(-71.24 -318.983)" fill="#fff"/><path d="M82.439,403.7a1.009,1.009,0,0,0-.865.512,1.086,1.086,0,0,0-.064.993,1.2,1.2,0,0,0,1.025.64,1,1,0,0,0,.8-.416.971.971,0,0,0,.1-1.057,1.089,1.089,0,0,0-.993-.673" transform="translate(-62.199 -331.355)" fill="#fff"/><path d="M74.907,414.1a.923.923,0,0,0-.833.512,1.086,1.086,0,0,0-.064.993,1.2,1.2,0,0,0,1.025.64,1,1,0,0,0,.8-.416.971.971,0,0,0,.1-1.057,1.188,1.188,0,0,0-1.025-.672" transform="translate(-57.101 -338.424)" fill="#fff"/><path d="M108.151,388.869a.926.926,0,0,0,0-.993,1.131,1.131,0,0,0-.993-.576.972.972,0,0,0-.865.512.926.926,0,0,0,0,.993,1.131,1.131,0,0,0,.993.576.893.893,0,0,0,.865-.512" transform="translate(-79.009 -320.206)" fill="#fff"/><path d="M110.819,380.937a1.131,1.131,0,0,0,.993.576.964.964,0,0,0,.865-.544.926.926,0,0,0,0-.993,1.131,1.131,0,0,0-.993-.576,1.171,1.171,0,0,0-.865.512,1.06,1.06,0,0,0,0,1.025" transform="translate(-82.092 -314.836)" fill="#fff"/><path d="M114.994,372.906a.983.983,0,0,0,0,1.025,1.131,1.131,0,0,0,.993.576.972.972,0,0,0,.865-.512.983.983,0,0,0,0-1.025,1.131,1.131,0,0,0-.993-.576.947.947,0,0,0-.865.512" transform="translate(-84.923 -310.071)" fill="#fff"/><path d="M97.576,407.369a.926.926,0,0,0,0-.993,1.131,1.131,0,0,0-.993-.576.972.972,0,0,0-.865.512,1.06,1.06,0,0,0,0,1.025,1.131,1.131,0,0,0,.993.576,1.087,1.087,0,0,0,.865-.544" transform="translate(-71.828 -332.782)" fill="#fff"/><path d="M102.187,398.214a.972.972,0,0,0,.865-.512.983.983,0,0,0,0-1.025,1.131,1.131,0,0,0-.993-.576.972.972,0,0,0-.865.512.983.983,0,0,0,0,1.025,1.35,1.35,0,0,0,.993.576" transform="translate(-75.542 -326.188)" fill="#fff"/><path d="M90.359,416.6a.972.972,0,0,0-.865.512.926.926,0,0,0,0,.993,1.131,1.131,0,0,0,.993.576,1.171,1.171,0,0,0,.865-.512,1,1,0,0,0,.032-.993,1.224,1.224,0,0,0-1.025-.576" transform="translate(-67.588 -340.124)" fill="#fff"/><path d="M119.459,366a.972.972,0,0,0-.865.512.926.926,0,0,0,0,.993,1.131,1.131,0,0,0,.993.576,1.171,1.171,0,0,0,.865-.512,1,1,0,0,0,.032-.993,1.154,1.154,0,0,0-1.025-.576" transform="translate(-87.37 -305.727)" fill="#fff"/><path d="M118.642,388.873a.94.94,0,0,0-.064-.961,1.171,1.171,0,0,0-.961-.512,1,1,0,0,0-.865.544,1.061,1.061,0,0,0,.032,1.025,1.171,1.171,0,0,0,.961.512,1.016,1.016,0,0,0,.9-.608" transform="translate(-86.137 -320.274)" fill="#fff"/><path d="M122.242,380.873a.94.94,0,0,0-.064-.961,1.171,1.171,0,0,0-.961-.512,1,1,0,0,0-.865.544,1.061,1.061,0,0,0,.032,1.025,1.171,1.171,0,0,0,.961.512.934.934,0,0,0,.9-.608" transform="translate(-88.584 -314.836)" fill="#fff"/><path d="M124.174,372.3a1,1,0,0,0-.929.64,1.021,1.021,0,0,0,0,.961,1.171,1.171,0,0,0,.961.512,1.09,1.09,0,0,0,.929-1.569,1.126,1.126,0,0,0-.961-.544" transform="translate(-90.548 -310.01)" fill="#fff"/><path d="M110.534,407.173a1.021,1.021,0,0,0,0-.961,1.171,1.171,0,0,0-.961-.512,1.09,1.09,0,0,0-.929,1.569,1.171,1.171,0,0,0,.961.512.992.992,0,0,0,.929-.608" transform="translate(-80.623 -332.714)" fill="#fff"/><path d="M113.887,398.082a.948.948,0,0,0,.9-.608,1.021,1.021,0,0,0,0-.961,1.171,1.171,0,0,0-.961-.512,1.052,1.052,0,0,0-.9.544.984.984,0,0,0,.032,1.025,1.171,1.171,0,0,0,.961.512" transform="translate(-83.527 -326.12)" fill="#fff"/><path d="M104.474,416.593a1.09,1.09,0,0,0-.929,1.569,1.171,1.171,0,0,0,.961.512,1.09,1.09,0,0,0,.929-1.569.972.972,0,0,0-.961-.512" transform="translate(-77.156 -340.116)" fill="#fff"/><path d="M99.323,428.5a1.052,1.052,0,0,0-.9.544.984.984,0,0,0,.032,1.025,1.171,1.171,0,0,0,.961.512.948.948,0,0,0,.9-.608,1.021,1.021,0,0,0,0-.961,1.171,1.171,0,0,0-.961-.512" transform="translate(-73.67 -348.213)" fill="#fff"/><path d="M124.553,397.182a1.013,1.013,0,0,0,.9-.544,1.041,1.041,0,0,0-.064-1.057,1.216,1.216,0,0,0-.929-.48,1.085,1.085,0,0,0-.9.576,1.046,1.046,0,0,0,.064,1.057,1.183,1.183,0,0,0,.929.448" transform="translate(-90.766 -325.509)" fill="#fff"/><path d="M128.306,387.845a1,1,0,0,0-.128-.9,1.184,1.184,0,0,0-.929-.448,1,1,0,0,0-.961.7.984.984,0,0,0,.128.9,1.184,1.184,0,0,0,.929.448.928.928,0,0,0,.961-.7" transform="translate(-92.663 -319.663)" fill="#fff"/><path d="M128.789,379.4a.984.984,0,0,0,.128.9,1.216,1.216,0,0,0,.929.48,1.052,1.052,0,0,0,.833-1.633,1.183,1.183,0,0,0-.929-.448.928.928,0,0,0-.961.7" transform="translate(-94.362 -314.355)" fill="#fff"/><path d="M117.949,415.4a1,1,0,0,0-.961.7.984.984,0,0,0,.128.9,1.139,1.139,0,0,0,.929.448,1,1,0,0,0,.961-.7.984.984,0,0,0-.128-.9,1.184,1.184,0,0,0-.929-.448" transform="translate(-86.341 -339.308)" fill="#fff"/><path d="M122.413,406.077a.984.984,0,0,0-.128-.9,1.216,1.216,0,0,0-.929-.48.985.985,0,0,0-.9.576,1.041,1.041,0,0,0,.064,1.057,1.184,1.184,0,0,0,.929.448,1,1,0,0,0,.961-.7" transform="translate(-88.659 -332.034)" fill="#fff"/><path d="M114.049,427.2a1,1,0,0,0-.961.7.984.984,0,0,0,.128.9,1.184,1.184,0,0,0,.929.448,1,1,0,0,0,.961-.7.984.984,0,0,0-.128-.9,1.185,1.185,0,0,0-.929-.448" transform="translate(-83.69 -347.329)" fill="#fff"/><path d="M132.049,371.6a.964.964,0,0,0-.961.737.984.984,0,0,0,.128.9,1.184,1.184,0,0,0,.929.448,1.023,1.023,0,0,0,.833-1.6,1.216,1.216,0,0,0-.929-.48" transform="translate(-95.925 -309.534)" fill="#fff"/><path d="M133.649,393.733a.971.971,0,0,0,.192.833,1.191,1.191,0,0,0,.9.416.945.945,0,0,0,.993-.8.961.961,0,0,0-.192-.865,1.191,1.191,0,0,0-.9-.416,1,1,0,0,0-.993.833" transform="translate(-97.685 -324.013)" fill="#fff"/><path d="M137.5,385.581a1.065,1.065,0,0,0-.192-.865,1.191,1.191,0,0,0-.9-.416,1,1,0,0,0-.993.833.961.961,0,0,0,.192.865,1.163,1.163,0,0,0,.9.384.9.9,0,0,0,.993-.8" transform="translate(-98.88 -318.167)" fill="#fff"/><path d="M139.131,378.081a1.065,1.065,0,0,0-.192-.865,1.192,1.192,0,0,0-.9-.416.972.972,0,0,0-.993.8,1.065,1.065,0,0,0,.192.865,1.191,1.191,0,0,0,.9.416.967.967,0,0,0,.993-.8" transform="translate(-99.996 -313.069)" fill="#fff"/><path d="M130.516,412.5a1.069,1.069,0,0,0-.929.576,1.105,1.105,0,0,0,.1,1.089,1.192,1.192,0,0,0,.9.416.945.945,0,0,0,.993-.8,1.065,1.065,0,0,0-.192-.865,1.177,1.177,0,0,0-.865-.416" transform="translate(-94.873 -337.337)" fill="#fff"/><path d="M132.642,402.2a1,1,0,0,0-.993.833,1.065,1.065,0,0,0,.192.865,1.163,1.163,0,0,0,.9.384,1.069,1.069,0,0,0,.929-.576,1.1,1.1,0,0,0-.1-1.089,1.315,1.315,0,0,0-.929-.416" transform="translate(-96.326 -330.335)" fill="#fff"/><path d="M128.013,424.2a.972.972,0,0,0-.993.8.961.961,0,0,0,.192.865,1.192,1.192,0,0,0,.9.416.972.972,0,0,0,.993-.8,1.065,1.065,0,0,0-.192-.865,1.245,1.245,0,0,0-.9-.416" transform="translate(-93.17 -345.29)" fill="#fff"/><path d="M143.108,398.964a.971.971,0,0,0-1.025.929.927.927,0,0,0,.224.769,1.163,1.163,0,0,0,.833.352.993.993,0,0,0,1.025-.929.971.971,0,0,0-.192-.833,1.163,1.163,0,0,0-.833-.352" transform="translate(-103.43 -328.092)" fill="#fff"/><path d="M143.975,390.1a1.053,1.053,0,0,0-.961.608,1.093,1.093,0,0,0,.16,1.121,1.163,1.163,0,0,0,.833.352,1.049,1.049,0,0,0,.8-1.7,1.078,1.078,0,0,0-.833-.384" transform="translate(-104.009 -322.11)" fill="#fff"/><path d="M144.775,381.9a1.053,1.053,0,0,0-.961.608,1.093,1.093,0,0,0,.16,1.121,1.163,1.163,0,0,0,.833.352,1.026,1.026,0,0,0,.929-.608,1.1,1.1,0,0,0-.128-1.121,1.11,1.11,0,0,0-.833-.352" transform="translate(-104.552 -316.536)" fill="#fff"/><path d="M140.908,420.3a.971.971,0,0,0-1.025.929,1.032,1.032,0,0,0,.224.8,1.163,1.163,0,0,0,.833.352.971.971,0,0,0,1.025-.929.927.927,0,0,0-.224-.769,1.078,1.078,0,0,0-.833-.384" transform="translate(-101.934 -342.635)" fill="#fff"/><path d="M142.208,409.2a.971.971,0,0,0-1.025.929.927.927,0,0,0,.224.768,1.163,1.163,0,0,0,.833.352.993.993,0,0,0,1.025-.929,1.054,1.054,0,0,0-.256-.8,1.137,1.137,0,0,0-.8-.32" transform="translate(-102.818 -335.09)" fill="#fff"/><path d="M145.608,374.6a.993.993,0,0,0-1.025.929,1.032,1.032,0,0,0,.224.8,1.163,1.163,0,0,0,.833.352.993.993,0,0,0,1.025-.929,1.032,1.032,0,0,0-.224-.8,1.163,1.163,0,0,0-.833-.352" transform="translate(-105.129 -311.573)" fill="#fff"/><path d="M152.336,394.889a1.121,1.121,0,0,0-.993.48.965.965,0,0,0,0,1.089,1.053,1.053,0,0,0,.993.48,1.091,1.091,0,0,0,.769-.288,1.015,1.015,0,0,0,.288-.737,1.147,1.147,0,0,0-.288-.769,1.068,1.068,0,0,0-.769-.256" transform="translate(-109.615 -325.362)" fill="#fff"/><path d="M152.657,386.2a.993.993,0,0,0-.769.32,1.015,1.015,0,0,0-.288.737,1.148,1.148,0,0,0,.288.769,1.053,1.053,0,0,0,1.729-1.153.987.987,0,0,0-.961-.672" transform="translate(-109.904 -319.459)" fill="#fff"/><path d="M152.421,380.549a1.091,1.091,0,0,0,.769-.288,1.014,1.014,0,0,0,.288-.737.927.927,0,0,0-.32-.737,1.147,1.147,0,0,0-.769-.288,1.283,1.283,0,0,0-.737.256,1.023,1.023,0,0,0-.352.769.927.927,0,0,0,.32.737,1,1,0,0,0,.8.288" transform="translate(-109.7 -314.224)" fill="#fff"/><path d="M152.657,414.99a1.091,1.091,0,0,0-.769.288,1.014,1.014,0,0,0-.288.737.927.927,0,0,0,.32.737,1.148,1.148,0,0,0,.769.288,1.091,1.091,0,0,0,.769-.288,1.014,1.014,0,0,0,.288-.737.927.927,0,0,0-.32-.737,1.055,1.055,0,0,0-.769-.288" transform="translate(-109.904 -339.026)" fill="#fff"/><path d="M152.557,406.712a1.091,1.091,0,0,0,.769-.288,1.047,1.047,0,0,0,.192-1.121.973.973,0,0,0-.961-.608,1.091,1.091,0,0,0-.769.288,1.014,1.014,0,0,0-.288.737.927.927,0,0,0,.32.737.879.879,0,0,0,.737.256" transform="translate(-109.836 -332.029)" fill="#fff"/><path d="M151.884,428.586l.128.1h.1a1.622,1.622,0,0,0,.416.064,1.163,1.163,0,0,0,.833-.352.885.885,0,0,0,.224-.769.971.971,0,0,0-1.025-.929,1.091,1.091,0,0,0-.769.288,1.045,1.045,0,0,0,0,1.441l.1.1" transform="translate(-109.836 -346.986)" fill="#fff"/><path d="M152.679,439.6a1.091,1.091,0,0,0-.769.288,1.047,1.047,0,0,0-.192,1.121.973.973,0,0,0,.961.608,1.091,1.091,0,0,0,.769-.288,1.047,1.047,0,0,0,.192-1.121,1.073,1.073,0,0,0-.961-.608" transform="translate(-109.926 -355.758)" fill="#fff"/><path d="M108.966,287.239a.927.927,0,0,0,.32.737,1.091,1.091,0,0,0,.769.288.993.993,0,0,0,.769-.32,1.014,1.014,0,0,0,.288-.737.945.945,0,0,0-.8-.993.832.832,0,0,0,.512-.288,1.014,1.014,0,0,0,.288-.737v-.256a1.008,1.008,0,0,0,.48.256,1.421,1.421,0,0,0-.352.256.976.976,0,0,0-.128,1.089,1.062,1.062,0,0,0,.929.608,1.163,1.163,0,0,0,.833-.352,1.054,1.054,0,0,0,.256-.8.986.986,0,0,0-.8-.9.908.908,0,0,0,.352-.256l.064-.128V285a.945.945,0,0,0,.993.8.874.874,0,0,0-.384.288.912.912,0,0,0-.16.865,1.025,1.025,0,0,0,.993.833,1.192,1.192,0,0,0,.9-.416.945.945,0,0,0,.16-.865.967.967,0,0,0-.993-.8.874.874,0,0,0,.384-.288.912.912,0,0,0,.16-.865.426.426,0,0,0-.1-.256.838.838,0,0,0,.544.16.748.748,0,0,0-.224.224,1,1,0,0,0-.128.9.962.962,0,0,0,.961.7,1.184,1.184,0,0,0,.929-.448,1.046,1.046,0,0,0,.064-1.057,1.109,1.109,0,0,0-.9-.576.748.748,0,0,0,.224-.224c.032-.064.1-.128.128-.192a.363.363,0,0,0,.1.256.965.965,0,0,0,.9.608h.256l-.288.288a.94.94,0,0,0-.064.961.965.965,0,0,0,.9.608,1.229,1.229,0,0,0,.993-.512,1.021,1.021,0,0,0,0-.961.965.965,0,0,0-.9-.608h-.256a1.222,1.222,0,0,0,.288-.288.945.945,0,0,0,.064-.961.8.8,0,0,0-.128-.224,1.151,1.151,0,0,0,.352.064h.224a.669.669,0,0,0-.128.192.983.983,0,0,0,0,1.025.972.972,0,0,0,.865.512,1.17,1.17,0,0,0,.993-.576.983.983,0,0,0,0-1.025.972.972,0,0,0-.865-.512h-.224c.064-.064.16-.1.224-.16a.618.618,0,0,0,.1-.32c.032.1.1.16.128.256a1.034,1.034,0,0,0,.8.448.735.735,0,0,0,.448-.128.7.7,0,0,0-.16.256,1.092,1.092,0,0,0,.064.993,1.077,1.077,0,0,0,.833.512,1.178,1.178,0,0,0,1.025-.64,1.046,1.046,0,0,0-.1-1.057,1,1,0,0,0-.8-.416,1.023,1.023,0,0,0-.448.1.983.983,0,0,0,.064-1.281l-.128-.128a.886.886,0,0,0,.416-.1l-.064.1a.985.985,0,0,0,.192,1.089,1.023,1.023,0,0,0,.769.352,1.233,1.233,0,0,0,1.025-.672.975.975,0,0,0-.192-1.089.958.958,0,0,0-.737-.352.887.887,0,0,0-.416.1v-.1a.7.7,0,0,0,.064-.448,1.393,1.393,0,0,0,.192.224.922.922,0,0,0,.672.288,1.054,1.054,0,0,0,.608-.192l-.064.128a.936.936,0,0,0,.288,1.153,1.067,1.067,0,0,0,.673.288,1.2,1.2,0,0,0,1.025-.737.936.936,0,0,0-.288-1.153.922.922,0,0,0-.672-.288,1.054,1.054,0,0,0-.608.192l.064-.128a.936.936,0,0,0-.288-1.153,1.067,1.067,0,0,0-.672-.288h-.256a1.171,1.171,0,0,0-.1-.8,1.21,1.21,0,0,0-.288-.384,1.17,1.17,0,0,0-1.537-.1c-.064.064-.16.1-.224.16a1.354,1.354,0,0,0-.16.224,14.89,14.89,0,1,1-10.632-25.3h1.793l.512.064h.32l.416.1.32.064a1.956,1.956,0,0,1,.416.1l.256.064.48.128.288.1.416.16.32.128.384.16.352.16.352.16.352.16c.128.064.224.128.352.192l.352.224.288.16.416.288.224.16.384.288.224.16.352.288.256.192.32.288a1.478,1.478,0,0,1,.224.224l.288.288.256.256a.319.319,0,0,0,.128.16.441.441,0,0,0,.1.128l.224.224a1.535,1.535,0,0,0,.64.224,1.336,1.336,0,0,0,1.153-.7,1.064,1.064,0,0,0,.1-.769h.16a1.034,1.034,0,0,0,.673-.256.957.957,0,0,0,.288-1.153l-.064-.1a1.054,1.054,0,0,0,.608.192,1.033,1.033,0,0,0,.672-.256.957.957,0,0,0,.288-1.153,1.144,1.144,0,0,0-1.025-.737.922.922,0,0,0-.672.288.957.957,0,0,0-.288,1.153.166.166,0,0,0,.064.128,1.268,1.268,0,0,0-.608-.224.922.922,0,0,0-.672.288,1.4,1.4,0,0,0-.192.224.7.7,0,0,0-.064-.448v-.1a.986.986,0,0,0,.416.1.957.957,0,0,0,.737-.352.975.975,0,0,0,.192-1.089,1.2,1.2,0,0,0-1.025-.7.957.957,0,0,0-.737.352.985.985,0,0,0-.192,1.089v.1a.986.986,0,0,0-.416-.1l.128-.128a1.19,1.19,0,0,0,.16-.737.289.289,0,0,1-.192-.192.182.182,0,0,1,.128-.224.242.242,0,0,1,.256.032.249.249,0,0,1,.064.256.957.957,0,0,0,.8-.416.971.971,0,0,0,.1-1.057,1.2,1.2,0,0,0-1.025-.64.923.923,0,0,0-.833.512,1.086,1.086,0,0,0-.064.993,1.123,1.123,0,0,0,.16.256,1.023,1.023,0,0,0-.448-.1.957.957,0,0,0-.8.416.516.516,0,0,0-.128.224.541.541,0,0,0-.1-.32c-.032-.064-.1-.128-.128-.192h.224a1.01,1.01,0,0,0,.865-.512,1.061,1.061,0,0,0,.032-1.025,1.131,1.131,0,0,0-.993-.576.972.972,0,0,0-.865.512.983.983,0,0,0,0,1.025.7.7,0,0,0,.128.16h-.224a1.362,1.362,0,0,0-.352.064,1.788,1.788,0,0,0,.16-.256.994.994,0,0,0-.288-1.281h.256a1,1,0,0,0,.865-.544,1.061,1.061,0,0,0-.032-1.025,1.171,1.171,0,0,0-.961-.512.948.948,0,0,0-.9.608,1.021,1.021,0,0,0,0,.961,2.449,2.449,0,0,0,.288.288h-.256a.934.934,0,0,0-.9.608c-.032.1-.064.16-.1.256a.516.516,0,0,0-.128-.224,1.48,1.48,0,0,0-.224-.224,1,1,0,0,0,.961-.7.971.971,0,0,0-.128-.929,1.184,1.184,0,0,0-.929-.448,1.013,1.013,0,0,0-.9.544,1.041,1.041,0,0,0,.064,1.057.749.749,0,0,0,.224.224,1.08,1.08,0,0,0-.544.16c.032-.1.1-.16.1-.256a1.065,1.065,0,0,0-.192-.865.874.874,0,0,0-.384-.288.985.985,0,0,0,.9-.576,1.039,1.039,0,0,0-.1-1.057,1.192,1.192,0,0,0-.9-.416,1,1,0,0,0-.993.8,1.065,1.065,0,0,0,.192.865.874.874,0,0,0,.384.288,1.029,1.029,0,0,0-.993.8v.224l-.1-.1a1.421,1.421,0,0,0-.352-.256.956.956,0,0,0,.8-.9.943.943,0,0,0-.256-.8,1.163,1.163,0,0,0-.833-.352.993.993,0,0,0-1.025.929,1.032,1.032,0,0,0,.224.8,1.421,1.421,0,0,0,.352.256,1.11,1.11,0,0,0-.512.256,1.108,1.108,0,0,0-.256-1.025.656.656,0,1,1,.288-1.249,1.065,1.065,0,0,0-1.793-.737,1.042,1.042,0,0,0-.32.737,1.069,1.069,0,0,0,.288.737,1.624,1.624,0,0,0,.512.288.967.967,0,0,0-.8.993v.224a.881.881,0,0,0-.48-.256.908.908,0,0,0,.352-.256.922.922,0,0,0,.224-.8.971.971,0,0,0-1.025-.929,1.163,1.163,0,0,0-.833.352,1.054,1.054,0,0,0-.256.8.99.99,0,0,0,.769.9.908.908,0,0,0-.352.256l-.064.1v-.288a.967.967,0,0,0-.993-.8.874.874,0,0,0,.384-.288,1.04,1.04,0,0,0,.192-.865,1.025,1.025,0,0,0-.993-.833,1.191,1.191,0,0,0-.9.416.971.971,0,0,0-.192.833,1,1,0,0,0,.993.833.874.874,0,0,0-.384.288,1.015,1.015,0,0,0-.192.865.463.463,0,0,0,.064.224,1.08,1.08,0,0,0-.544-.16,1.6,1.6,0,0,0,.256-.224,1,1,0,0,0,.128-.9.962.962,0,0,0-.961-.7,1.184,1.184,0,0,0-.929.448,1.051,1.051,0,0,0,.833,1.633.748.748,0,0,0-.224.224c-.032.064-.1.128-.128.192a.364.364,0,0,0-.1-.256.934.934,0,0,0-.9-.608h-.256a.628.628,0,0,0,.288-.288.984.984,0,0,0,.032-1.025,1.052,1.052,0,0,0-.9-.544,1.171,1.171,0,0,0-.961.512,1.021,1.021,0,0,0,0,.961,1,1,0,0,0,.929.64h.256a.628.628,0,0,0-.288.288.961.961,0,0,0,.1,1.153,1.688,1.688,0,0,0-.384-.1h-.224c.064-.064.1-.128.16-.192a1,1,0,0,0-.032-.993,1.083,1.083,0,0,0-.865-.512,1.17,1.17,0,0,0-.993.576.927.927,0,0,0,0,.993,1,1,0,0,0,.865.544h.224c-.064.064-.1.128-.16.192a.541.541,0,0,0-.1.32c-.032-.1-.1-.16-.128-.256a1.035,1.035,0,0,0-.8-.448,1.13,1.13,0,0,0-.448.1.7.7,0,0,0,.16-.256,1.046,1.046,0,0,0-.1-1.057,1.034,1.034,0,0,0-.8-.448,1.13,1.13,0,0,0-.993.64.924.924,0,0,0,.1,1.057.913.913,0,0,0,.8.448,1.13,1.13,0,0,0,.448-.1.7.7,0,0,0-.16.256.924.924,0,0,0,.1,1.057.386.386,0,0,0,.16.16h-.128a.986.986,0,0,0-.416.1v-.1a.985.985,0,0,0-.192-1.089.958.958,0,0,0-.737-.352,1.171,1.171,0,0,0-1.025.672.985.985,0,0,0,.192,1.089.906.906,0,0,0,1.153.256v.1a1.023,1.023,0,0,0-.1.448,1.394,1.394,0,0,0-.192-.224.922.922,0,0,0-.672-.288,1.054,1.054,0,0,0-.608.192l.064-.128a.936.936,0,0,0-.288-1.153.922.922,0,0,0-.672-.288,1.237,1.237,0,0,0-1.025.737.969.969,0,0,0,.256,1.153.922.922,0,0,0,.672.288,1.054,1.054,0,0,0,.608-.192l-.064.128a.936.936,0,0,0,.288,1.153l.224.16a1.116,1.116,0,0,0-.544.192.974.974,0,0,0-.384-1.153,1.4,1.4,0,0,0-.608-.224,1.172,1.172,0,0,0-1.025.8.961.961,0,0,0,.384,1.153,1.268,1.268,0,0,0,.608.224.894.894,0,0,0,.576-.192.794.794,0,0,0,0,.544.974.974,0,0,0-.224-.16,1.08,1.08,0,0,0-.544-.16.957.957,0,0,0-.737.352h0a.957.957,0,0,0-.48-1.153,1.079,1.079,0,0,0-.544-.16,1.168,1.168,0,0,0-1.025.833.957.957,0,0,0,.48,1.153,1.08,1.08,0,0,0,.544.16.957.957,0,0,0,.737-.352.957.957,0,0,0,.48,1.153l.224.1a1.206,1.206,0,0,0-.48.288.95.95,0,0,0-.608-1.025,1.022,1.022,0,0,0-.448-.1,1.091,1.091,0,0,0-1.025.9.964.964,0,0,0,.576,1.153,1.022,1.022,0,0,0,.448.1.456.456,0,0,1,.288-.416.461.461,0,0,1,.48.128.384.384,0,0,1,.032.48.644.644,0,0,0-.256-.128.655.655,0,0,0-.352,0,.815.815,0,0,1-1.025.416.8.8,0,0,1-.512-.993,1.151,1.151,0,0,0-.352-.064,1.093,1.093,0,0,0-1.025.929.981.981,0,0,0,.7,1.153,1.151,1.151,0,0,0,.352.064,1.01,1.01,0,0,0,.865-.512,1.007,1.007,0,0,0,.7,1.089.655.655,0,0,0,.352,0h.064a.913.913,0,0,0-.608.48.986.986,0,0,0-.8-.9h-.256a1.038,1.038,0,0,0-.993.961.987.987,0,0,0,.8,1.153h.256a.923.923,0,0,0,.833-.512,1.053,1.053,0,0,0,.224.512h-.288a1.079,1.079,0,0,1-1.089.7.991.991,0,0,1-.9-.9,1.107,1.107,0,0,0-.833.224,1.139,1.139,0,0,0-.128,1.505,1.065,1.065,0,0,0,.672.352h.128a.949.949,0,0,1,1.025-.737.935.935,0,0,1,.833.929h.224a.982.982,0,0,0-.288.448.935.935,0,0,0-.961-.672,1.057,1.057,0,1,0,0,2.114.935.935,0,0,0,.961-.673,1.343,1.343,0,0,0,.288.448h-.256a1,1,0,0,0-.929.929,1,1,0,0,0-.961-.7h-.128a1.111,1.111,0,0,0-.737.384,1.032,1.032,0,0,0-.224.8,1.053,1.053,0,0,0,1.025,1.025h.128a1,1,0,0,0,.929-.9,1,1,0,0,0,.961.7h.128a.354.354,0,0,0,.256,0,1.163,1.163,0,0,0-.224.544.923.923,0,0,0-.833-.512H91.1a.886.886,0,0,0-.64.416.927.927,0,0,0-.16.769,1.043,1.043,0,0,0,.993.993h.256a.952.952,0,0,0,.8-.865,1.1,1.1,0,0,0,.384.384h-.256a.986.986,0,0,0-.7,1.089.937.937,0,0,0-.865-.512.658.658,0,0,0-.352,0,1,1,0,0,0-.7,1.153,1.067,1.067,0,0,0,1.025.929,1.362,1.362,0,0,0,.352-.064.986.986,0,0,0,.7-1.089.937.937,0,0,0,.865.512.658.658,0,0,0,.352,0l.224-.1a.8.8,0,0,0-.1.544.9.9,0,0,0-1.153-.224.953.953,0,0,0-.608,1.153,1.121,1.121,0,0,0,.993.9,1.023,1.023,0,0,0,.448-.1.95.95,0,0,0,.608-1.025.982.982,0,0,0,.448.288l-.256.1a.957.957,0,0,0-.48,1.153v.064a.957.957,0,0,0-.737-.352,1.508,1.508,0,0,0-.544.128.993.993,0,0,0-.48,1.153,1.168,1.168,0,0,0,1.025.833,1.079,1.079,0,0,0,.544-.16.957.957,0,0,0,.48-1.153h0a.957.957,0,0,0,.737.352,1.08,1.08,0,0,0,.544-.16.973.973,0,0,0,.224-.16.889.889,0,0,0,0,.576,1.279,1.279,0,0,0-.576-.224.845.845,0,0,0-.608.224.974.974,0,0,0-.384,1.153,1.172,1.172,0,0,0,1.025.8.845.845,0,0,0,.608-.224.974.974,0,0,0,.384-1.153.785.785,0,0,0,.512.192l-.224.16a.957.957,0,0,0-.288,1.153.427.427,0,0,0,.1.16,1.054,1.054,0,0,0-.608-.192.922.922,0,0,0-.672.288.957.957,0,0,0-.288,1.153,1.144,1.144,0,0,0,1.025.737,1.033,1.033,0,0,0,.672-.256.957.957,0,0,0,.288-1.153l-.064-.16a.985.985,0,0,0,.608.192.922.922,0,0,0,.672-.288.849.849,0,0,0,.16-.192.736.736,0,0,0,.064.448v.1a.886.886,0,0,0-.416-.1.957.957,0,0,0-.737.352.985.985,0,0,0-.192,1.089,1.116,1.116,0,0,0,1.025.672,1.023,1.023,0,0,0,.769-.352.975.975,0,0,0,.192-1.089v-.1a.986.986,0,0,0,.416.1h.128a1.394,1.394,0,0,0-.192.224.971.971,0,0,0-.1,1.057.7.7,0,0,0,.16.256,1.042,1.042,0,0,0-.448-.128,1.009,1.009,0,0,0-.865.512,1.086,1.086,0,0,0-.064.993,1.2,1.2,0,0,0,1.025.64.957.957,0,0,0,.8-.416.971.971,0,0,0,.1-1.057.7.7,0,0,0-.16-.256.98.98,0,0,0,1.153-.224,1.031,1.031,0,0,0,.192-1.153h.512a1.759,1.759,0,0,0-.224.288.983.983,0,0,0,0,1.025.849.849,0,0,0,.16.192h-.224a.972.972,0,0,0-.865.512.983.983,0,0,0,0,1.025,1.14,1.14,0,0,0,.993.544.972.972,0,0,0,.865-.512.926.926,0,0,0,0-.993c-.032-.064-.1-.128-.128-.192h.224a1.362,1.362,0,0,0,.352-.064.7.7,0,0,0-.16.256.965.965,0,0,0,.352,1.249h-.224a1.026,1.026,0,0,0-.929.608.94.94,0,0,0,.064.961,1.171,1.171,0,0,0,.961.512.948.948,0,0,0,.9-.608,1.021,1.021,0,0,0,0-.961,1.223,1.223,0,0,0-.288-.288h.224a1,1,0,0,0,.929-.64.594.594,0,0,0,.064-.224.669.669,0,0,0,.128.192.748.748,0,0,0,.224.224.99.99,0,0,0-.961.737.9.9,0,0,0,.128.9,1.184,1.184,0,0,0,.929.448,1,1,0,0,0,.961-.7.984.984,0,0,0-.128-.9.749.749,0,0,0-.224-.224.838.838,0,0,0,.544-.16c-.032.1-.064.16-.1.256a1.065,1.065,0,0,0,.192.865,1.1,1.1,0,0,0,.384.288,1.029,1.029,0,0,0-.993.8.961.961,0,0,0,.192.865,1.163,1.163,0,0,0,.9.384.945.945,0,0,0,.993-.8,1.065,1.065,0,0,0-.192-.865,1.1,1.1,0,0,0-.384-.288,1.025,1.025,0,0,0,.993-.833v-.256l.1.128a1.422,1.422,0,0,0,.352.256,1.082,1.082,0,0,0-.737.7,1.1,1.1,0,0,0,.192.993,1.163,1.163,0,0,0,.833.352,1.053,1.053,0,0,0,.961-.608,1.093,1.093,0,0,0-.16-1.121,1.421,1.421,0,0,0-.352-.256,1.11,1.11,0,0,0,.512-.256v.288a.945.945,0,0,0,.8.993,1.089,1.089,0,0,0-.48.224,1.023,1.023,0,0,0-.352.769m4.387-37.019v.064l.192.16a.364.364,0,0,0-.256.1v-.32m7.718,3.683c-.064.064-.1.128-.128.16a.594.594,0,0,0-.064-.224h.256m-3.01-1.889-.1.192a.7.7,0,0,0-.1-.16c-.032-.032-.064-.1-.1-.128a1.362,1.362,0,0,0,.352-.064c-.032.064-.1.1-.128.16m-3.3-1.281v.192a.85.85,0,0,0-.192-.16,1.148,1.148,0,0,0,.352-.128.207.207,0,0,1-.1.16m-4.739-.576-.224.128v-.288a1.124,1.124,0,0,0,.256.16m-3.491.416c-.064.064-.16.128-.224.192v-.32a1.137,1.137,0,0,0,.288.128m-3.491,1.281v.128l-.1-.192c-.032-.064-.064-.1-.1-.16a1.688,1.688,0,0,0,.384.1l-.128.128m-7.686,6.981a.444.444,0,0,0,0,.288l-.16-.1h-.128a1.138,1.138,0,0,0,.288-.128m-1.025,2.114.192.064a1.774,1.774,0,0,0-.256.192.73.73,0,0,0-.1-.352l.16.1m-.769,3.555a.863.863,0,0,0-.224.256,1,1,0,0,0-.16-.32l.16.064h.224m-.1,4.964H93.37a.61.61,0,0,0,.16-.32,1.336,1.336,0,0,0,.192.256m.608,3.266a1.393,1.393,0,0,0,.224.192H94.4l-.128.064a.541.541,0,0,0,.1-.32m.865,2.178.192-.1a.546.546,0,0,0,0,.32,1.5,1.5,0,0,0-.32-.16l.128-.064m2.114,2.882a.655.655,0,0,0,0,.352.645.645,0,0,0-.352-.1l.128-.1a.386.386,0,0,0,.16-.16M123.056,255.7h-.1l.1-.128v.128m-2.69-2.082h-.256l.128-.128v-.128a.516.516,0,0,0,.1.288m-3.2-1.857.1.128h-.288l.1-.192v-.16l.1.192m-5.668-1.281v.192a.7.7,0,0,0-.256-.16,1.15,1.15,0,0,0,.32-.224v.192m-3.523.16v.192a1.137,1.137,0,0,0-.288-.128,1.391,1.391,0,0,0,.224-.192v.128m-3.491.9c.032.064.032.128.1.192-.032.064-.1.128-.16.1a.138.138,0,0,1-.128-.128c0-.064.032-.16.1-.16l.1-.16v.192M100.9,252.75l.128.16h-.32v-.064l.1-.288.064.16m-1.153.769H99.9v.064a.463.463,0,0,0-.064.224.7.7,0,0,0-.1-.16l-.128-.1h.16m-1.633,1.473.128.128a.618.618,0,0,0-.32.1.781.781,0,0,0,0-.384.32.32,0,0,0,.128.16m-.8.9a.444.444,0,0,0,0,.288l-.16-.128-.128-.064a.73.73,0,0,0,.352-.1m-1.473,1.889.16.1a1.139,1.139,0,0,0-.288.128.655.655,0,0,0,0-.352c.032.032.064.1.128.128m-2.754,7.91a.643.643,0,0,0,.128.256h-.32a.77.77,0,0,0,.192-.256m-.064,2.338h.224a1.3,1.3,0,0,0-.16.288,1.76,1.76,0,0,0-.224-.288h.16m.544,3.491h.192c-.032.1-.064.192-.1.32a1.763,1.763,0,0,0-.288-.224h.192M95.484,276a.7.7,0,0,0,.256.16l-.16.1-.128.1a1.435,1.435,0,0,1,.032-.352m2.114,2.882.288.1-.128.128c-.032.032-.064.1-.1.128a.658.658,0,0,0,0-.352m1.665,1.633a.32.32,0,0,0,.128-.16.517.517,0,0,0,.1.288h-.384l.16-.128M102.4,282.6l.1-.192c.032.064.032.128.1.16.032.032.064.1.1.128a1.362,1.362,0,0,0-.352.064.541.541,0,0,0,.064-.16m3.362,1.249v-.16c.064.064.1.128.16.16a.959.959,0,0,0-.32.128v-.16m8.326.128c.064-.064.16-.128.224-.192v.192c0,.064.032.1.1.16a.671.671,0,0,0-.352-.128m3.362-1.153c.032-.032.1-.064.128-.128l.064-.1c.032.064.032.128.064.16l.1.128a1.653,1.653,0,0,0-.352-.064m3.266-1.889H120.3v-.224l.1.128.064.064m-10.183,3.523c.1-.032.16-.1.256-.128v.32a1.05,1.05,0,0,0-.256-.192m2.306-.192v-.224a1.137,1.137,0,0,0,.288.128c-.064.064-.16.128-.224.192v-.1m3.523-.929-.1-.192a1.151,1.151,0,0,0,.352.064c-.064.032-.1.1-.128.128a.7.7,0,0,1-.1.16v-.192m3.2-1.6a.32.32,0,0,0-.128-.16h.512v.064l-.1.288c-.032-.064-.032-.128-.064-.16m2.722-2.21h.128v.192c-.032-.064-.064-.1-.1-.16m-18.67,3.747c-.032-.032-.064-.1-.1-.128h.288a.207.207,0,0,1-.1.16v.16a.7.7,0,0,0-.1-.16m3.523,1.089c-.064-.064-.1-.128-.16-.16l.288-.1v.256m2.146.128v-.192a.7.7,0,0,0,.256.16.651.651,0,0,0-.288.192v-.16m-15.5-22.256a.784.784,0,0,0,.128.384l-.256-.1H93.5a.759.759,0,0,0,.48-.288" transform="translate(-67.334 -224.213)" fill="#fff"/><path d="M162.824,400.829a1.022,1.022,0,0,0,.128-1.121,1.062,1.062,0,0,0-.929-.608,1.163,1.163,0,0,0-.833.352,1.022,1.022,0,0,0-.128,1.121,1.042,1.042,0,0,0,.929.608,1.163,1.163,0,0,0,.833-.352" transform="translate(-116.261 -328.228)" fill="#fff"/><path d="M161.844,391.829a1.054,1.054,0,0,0,.256-.8,1.014,1.014,0,0,0-1.025-.929,1.163,1.163,0,0,0-.833.352,1.054,1.054,0,0,0-.256.8,1.014,1.014,0,0,0,1.025.929,1.11,1.11,0,0,0,.833-.352" transform="translate(-115.601 -322.11)" fill="#fff"/><path d="M161.112,383.661a1.037,1.037,0,0,0,.192-1.121,1.1,1.1,0,0,0-.929-.64,1.163,1.163,0,0,0-.833.352,1.054,1.054,0,0,0-.256.8,1.037,1.037,0,0,0,1.025.929,1.163,1.163,0,0,0,.833-.352" transform="translate(-115.125 -316.536)" fill="#fff"/><path d="M165.115,421.929a.922.922,0,0,0,.224-.8,1.037,1.037,0,0,0-1.025-.929,1.163,1.163,0,0,0-.833.352.922.922,0,0,0-.224.8,1.037,1.037,0,0,0,1.025.929,1.163,1.163,0,0,0,.833-.352" transform="translate(-117.815 -342.571)" fill="#fff"/><path d="M163.044,411.281a1.163,1.163,0,0,0,.833-.352,1.022,1.022,0,0,0,.128-1.121,1.062,1.062,0,0,0-.929-.608,1.163,1.163,0,0,0-.833.352,1.039,1.039,0,0,0,.8,1.729" transform="translate(-116.961 -335.093)" fill="#fff"/><path d="M166.6,433.725a.971.971,0,0,0-1.025-.929,1.163,1.163,0,0,0-.833.352.67.67,0,0,0-.128.192,1.05,1.05,0,0,0-.128.608,1,1,0,0,0,1.057.929.977.977,0,0,0,1.025-.7,1.055,1.055,0,0,0,0-.448" transform="translate(-118.655 -351.132)" fill="#fff"/><path d="M160.215,376.429a.922.922,0,0,0,.224-.8,1.037,1.037,0,0,0-1.025-.929,1.163,1.163,0,0,0-.833.352.922.922,0,0,0-.224.8.991.991,0,0,0,1.025.929,1.163,1.163,0,0,0,.833-.352" transform="translate(-114.484 -311.641)" fill="#fff"/><path d="M170.274,395.177a1.191,1.191,0,0,0,.9-.416.912.912,0,0,0,.16-.865.967.967,0,0,0-.993-.8,1.191,1.191,0,0,0-.9.416,1.04,1.04,0,0,0-.192.865,1.1,1.1,0,0,0,1.025.8" transform="translate(-121.885 -324.145)" fill="#fff"/><path d="M168.574,386.582a1.191,1.191,0,0,0,.9-.416,1.105,1.105,0,0,0,.1-1.089,1,1,0,0,0-.929-.576,1.192,1.192,0,0,0-.9.416,1.04,1.04,0,0,0-.192.865,1,1,0,0,0,1.025.8" transform="translate(-120.729 -318.303)" fill="#fff"/><path d="M167.038,377a1.163,1.163,0,0,0-.9.384,1.04,1.04,0,0,0-.192.865.967.967,0,0,0,.993.8,1.163,1.163,0,0,0,.9-.384,1.065,1.065,0,0,0,.192-.865,1,1,0,0,0-.993-.8" transform="translate(-119.642 -313.205)" fill="#fff"/><path d="M174.542,414.745a1.163,1.163,0,0,0,.9-.384,1.065,1.065,0,0,0,.192-.865.967.967,0,0,0-.993-.8,1.192,1.192,0,0,0-.9.416,1.065,1.065,0,0,0-.192.865.97.97,0,0,0,.993.769" transform="translate(-124.808 -337.468)" fill="#fff"/><path d="M173.164,404.061a1.065,1.065,0,0,0,.192-.865.967.967,0,0,0-.993-.8,1.191,1.191,0,0,0-.9.416.945.945,0,0,0-.16.865.967.967,0,0,0,.993.8,1.234,1.234,0,0,0,.865-.416" transform="translate(-123.27 -330.467)" fill="#fff"/><path d="M179.838,437a1.191,1.191,0,0,0-.9.416,1.015,1.015,0,0,0-.192.865.967.967,0,0,0,.993.8,1.191,1.191,0,0,0,.9-.416,1.015,1.015,0,0,0,.192-.865,1.029,1.029,0,0,0-.993-.8" transform="translate(-128.343 -353.991)" fill="#fff"/><path d="M180.549,397.381a1.183,1.183,0,0,0,.929-.448,1.05,1.05,0,0,0,.128-.929,1,1,0,0,0-.961-.7,1.125,1.125,0,0,0-.929.48,1.023,1.023,0,0,0,.833,1.6" transform="translate(-128.894 -325.645)" fill="#fff"/><path d="M177.779,388.777a1.125,1.125,0,0,0,.929-.48,1,1,0,0,0,.128-.9.962.962,0,0,0-.961-.7,1.047,1.047,0,0,0-.929.48,1.123,1.123,0,0,0-.064,1.057,1.155,1.155,0,0,0,.9.544" transform="translate(-127.02 -319.794)" fill="#fff"/><path d="M176.178,380.5a1,1,0,0,0,.128-.9.962.962,0,0,0-.961-.7,1.183,1.183,0,0,0-.929.448,1.023,1.023,0,0,0,.833,1.6,1.02,1.02,0,0,0,.929-.448" transform="translate(-125.291 -314.492)" fill="#fff"/><path d="M188.178,417.2a1.046,1.046,0,0,0,.064-1.057.957.957,0,0,0-.9-.544,1.184,1.184,0,0,0-.929.448,1.05,1.05,0,0,0-.128.929.962.962,0,0,0,.961.7,1.326,1.326,0,0,0,.929-.48" transform="translate(-133.449 -339.444)" fill="#fff"/><path d="M184.678,406.433a1.128,1.128,0,0,0,.064-1.057,1.159,1.159,0,0,0-.9-.576,1.184,1.184,0,0,0-.929.448,1.05,1.05,0,0,0-.128.929.962.962,0,0,0,.961.7,1.02,1.02,0,0,0,.929-.448" transform="translate(-131.069 -332.102)" fill="#fff"/><path d="M190.972,427.4a1.163,1.163,0,0,0-.833.352l-.1.064a1.022,1.022,0,0,0-.256.769,1,1,0,0,0,1.057.929,1.163,1.163,0,0,0,.833-.352.32.32,0,0,0,.128-.16,1.023,1.023,0,0,0-.833-1.6" transform="translate(-135.858 -347.465)" fill="#fff"/><path d="M172.957,373.877a1.183,1.183,0,0,0,.929-.448,1.05,1.05,0,0,0,.128-.929.962.962,0,0,0-.961-.7,1.125,1.125,0,0,0-.929.48,1.046,1.046,0,0,0-.064,1.057,1.078,1.078,0,0,0,.9.544" transform="translate(-123.735 -309.665)" fill="#fff"/><path d="M187.482,389.682a1.171,1.171,0,0,0,.961-.512,1.021,1.021,0,0,0,0-.961.965.965,0,0,0-.9-.608,1.171,1.171,0,0,0-.961.512,1.061,1.061,0,0,0-.032,1.025,1.013,1.013,0,0,0,.9.544" transform="translate(-133.585 -320.41)" fill="#fff"/><path d="M185.07,381.169a.983.983,0,0,0,0-1.025,1.051,1.051,0,0,0-1.825-.032,1.021,1.021,0,0,0,0,.961.976.976,0,0,0,.929.608,1.129,1.129,0,0,0,.961-.512" transform="translate(-131.334 -314.972)" fill="#fff"/><path d="M180.045,373.112a1.021,1.021,0,0,0,0,.961.965.965,0,0,0,.9.608,1.171,1.171,0,0,0,.961-.512.945.945,0,0,0,.064-.961.976.976,0,0,0-.929-.608,1.129,1.129,0,0,0-.961.512" transform="translate(-129.158 -310.214)" fill="#fff"/><path d="M196.67,407.469a1.061,1.061,0,0,0,.032-1.025,1,1,0,0,0-.865-.544,1.229,1.229,0,0,0-.993.512,1.021,1.021,0,0,0,0,.961.965.965,0,0,0,.9.608,1.171,1.171,0,0,0,.961-.512" transform="translate(-139.219 -332.85)" fill="#fff"/><path d="M191.214,398.381a1.171,1.171,0,0,0,.961-.512,1.021,1.021,0,0,0,0-.961.976.976,0,0,0-.929-.608,1.171,1.171,0,0,0-.961.512,1.029,1.029,0,0,0,.865,1.569" transform="translate(-136.1 -326.324)" fill="#fff"/><path d="M201.57,418.369a1.061,1.061,0,0,0,.032-1.025,1.013,1.013,0,0,0-.9-.544,1.171,1.171,0,0,0-.961.512,1.021,1.021,0,0,0,0,.961.965.965,0,0,0,.9.608,1.171,1.171,0,0,0,.961-.512" transform="translate(-142.55 -340.26)" fill="#fff"/><path d="M205.846,427.9a1.171,1.171,0,0,0-.961.512,1.061,1.061,0,0,0-.032,1.025,1.013,1.013,0,0,0,.9.544,1.171,1.171,0,0,0,.961-.512,1.021,1.021,0,0,0,0-.961.965.965,0,0,0-.9-.608" transform="translate(-146.025 -347.805)" fill="#fff"/><path d="M197.791,389.714a1.131,1.131,0,0,0,.993-.576,1.061,1.061,0,0,0-.032-1.025,1.01,1.01,0,0,0-.865-.512,1.131,1.131,0,0,0-.993.576.983.983,0,0,0,0,1.025,1.022,1.022,0,0,0,.9.512" transform="translate(-140.596 -320.41)" fill="#fff"/><path d="M193.446,379.7a1.131,1.131,0,0,0-.993.576,1,1,0,0,0,.032.993,1.083,1.083,0,0,0,.865.512,1.17,1.17,0,0,0,.993-.576,1.153,1.153,0,0,0,0-1.025,1.2,1.2,0,0,0-.9-.48" transform="translate(-137.595 -315.04)" fill="#fff"/><path d="M188.294,373.376a.927.927,0,0,0,0,.993.972.972,0,0,0,.865.512,1.131,1.131,0,0,0,.993-.576,1,1,0,0,0-.032-.993,1.009,1.009,0,0,0-.865-.512,1.119,1.119,0,0,0-.961.576" transform="translate(-134.75 -310.35)" fill="#fff"/><path d="M209.51,406.612a.972.972,0,0,0-.865-.512,1.17,1.17,0,0,0-.993.576,1.061,1.061,0,0,0,.032,1.025,1.009,1.009,0,0,0,.865.512,1.131,1.131,0,0,0,.993-.576.915.915,0,0,0-.032-1.025" transform="translate(-147.928 -332.986)" fill="#fff"/><path d="M202.959,398.413a1.131,1.131,0,0,0,.993-.576.983.983,0,0,0,0-1.025.972.972,0,0,0-.865-.512,1.17,1.17,0,0,0-.993.576.926.926,0,0,0,0,.993.944.944,0,0,0,.865.544" transform="translate(-144.13 -326.324)" fill="#fff"/><path d="M214.787,416.8a1.131,1.131,0,0,0-.993.576.927.927,0,0,0,0,.993.972.972,0,0,0,.865.512,1.131,1.131,0,0,0,.993-.576.983.983,0,0,0,0-1.025,1.009,1.009,0,0,0-.865-.48" transform="translate(-152.084 -340.26)" fill="#fff"/><path d="M185.746,366.3a1.131,1.131,0,0,0-.993.576,1,1,0,0,0,.032.993,1.009,1.009,0,0,0,.865.512,1.17,1.17,0,0,0,.993-.576.983.983,0,0,0,0-1.025,1.108,1.108,0,0,0-.9-.48" transform="translate(-132.361 -305.931)" fill="#fff"/><path d="M203.116,380.714a1.13,1.13,0,0,0,.993-.64,1.046,1.046,0,0,0-.1-1.057,1,1,0,0,0-.8-.416,1.178,1.178,0,0,0-1.025.64,1.046,1.046,0,0,0,.1,1.057,1.016,1.016,0,0,0,.833.416" transform="translate(-144.224 -314.292)" fill="#fff"/><path d="M198.055,373.814a1.178,1.178,0,0,0,1.025-.64,1.046,1.046,0,0,0-.1-1.057,1,1,0,0,0-.8-.416,1.178,1.178,0,0,0-1.025.64.977.977,0,0,0,.1,1.057,1.092,1.092,0,0,0,.8.416" transform="translate(-140.796 -309.602)" fill="#fff"/><path d="M192.488,366.04a1.046,1.046,0,0,0,.1,1.057,1,1,0,0,0,.8.416,1.13,1.13,0,0,0,.993-.64,1.046,1.046,0,0,0-.1-1.057,1,1,0,0,0-.8-.416,1.169,1.169,0,0,0-.993.64" transform="translate(-137.63 -305.319)" fill="#fff"/><path d="M214.869,394.8a1.13,1.13,0,0,0-.993.64,1.084,1.084,0,0,0,.032.993,1.172,1.172,0,0,0,.865.512,1.13,1.13,0,0,0,.993-.64,1.084,1.084,0,0,0-.032-.993,1.038,1.038,0,0,0-.865-.512" transform="translate(-152.166 -325.305)" fill="#fff"/><path d="M208.684,388.314a1.178,1.178,0,0,0,1.025-.64,1.046,1.046,0,0,0-.1-1.057,1,1,0,0,0-.8-.416,1.178,1.178,0,0,0-1.025.64,1.046,1.046,0,0,0,.1,1.057.957.957,0,0,0,.8.416" transform="translate(-148.03 -319.459)" fill="#fff"/><path d="M222.112,404.5a1.178,1.178,0,0,0-1.025.641,1.046,1.046,0,0,0,.1,1.057,1.034,1.034,0,0,0,.8.448,1.13,1.13,0,0,0,.993-.64,1,1,0,0,0-.064-.993.912.912,0,0,0-.8-.512" transform="translate(-157.071 -331.898)" fill="#fff"/><path d="M229.612,415a1.178,1.178,0,0,0-1.025.64,1.046,1.046,0,0,0,.1,1.057,1,1,0,0,0,.8.416,1.178,1.178,0,0,0,1.025-.64,1.092,1.092,0,0,0-.064-.993.956.956,0,0,0-.833-.48" transform="translate(-162.17 -339.036)" fill="#fff"/><path d="M214.141,378.041a.985.985,0,0,0-.192-1.089.957.957,0,0,0-.737-.352,1.233,1.233,0,0,0-1.025.673.932.932,0,0,0,.192,1.089.957.957,0,0,0,.737.352,1.151,1.151,0,0,0,1.025-.673" transform="translate(-151.022 -312.933)" fill="#fff"/><path d="M208.022,371.341a.975.975,0,0,0-.192-1.089,1.023,1.023,0,0,0-.769-.352,1.232,1.232,0,0,0-1.025.672,1.026,1.026,0,0,0,.1.961,1.071,1.071,0,0,0,1.889-.192" transform="translate(-146.856 -308.378)" fill="#fff"/><path d="M200.637,364.572a1.026,1.026,0,0,0,.1.961,1.131,1.131,0,0,0,.833.48,1.171,1.171,0,0,0,1.025-.672.985.985,0,0,0-.192-1.089,1.023,1.023,0,0,0-.769-.352,1.106,1.106,0,0,0-.993.672" transform="translate(-143.185 -304.3)" fill="#fff"/><path d="M227.347,394.714a1.171,1.171,0,0,0,1.025-.673.985.985,0,0,0-.192-1.089.957.957,0,0,0-.737-.352,1.232,1.232,0,0,0-1.025.672.975.975,0,0,0,.192,1.089,1.148,1.148,0,0,0,.737.352" transform="translate(-160.704 -323.809)" fill="#fff"/><path d="M219.847,386.314a1.171,1.171,0,0,0,1.025-.673.985.985,0,0,0-.192-1.089.957.957,0,0,0-.737-.352,1.171,1.171,0,0,0-1.025.673.985.985,0,0,0,.192,1.089.911.911,0,0,0,.737.352" transform="translate(-155.606 -318.099)" fill="#fff"/><path d="M235.743,401.8a1.171,1.171,0,0,0-1.025.672.985.985,0,0,0,.192,1.089.957.957,0,0,0,.737.352,1.232,1.232,0,0,0,1.025-.672.932.932,0,0,0-.192-1.089.958.958,0,0,0-.737-.352" transform="translate(-166.347 -330.063)" fill="#fff"/><path d="M196.643,358.3a1.232,1.232,0,0,0-1.025.672.985.985,0,0,0,.192,1.089.957.957,0,0,0,.737.352,1.171,1.171,0,0,0,1.025-.673,1.126,1.126,0,0,0-.1-.961,1.028,1.028,0,0,0-.833-.48" transform="translate(-139.768 -300.493)" fill="#fff"/><path d="M217.326,368.009a.936.936,0,0,0-.288-1.153,1.1,1.1,0,0,0-.672-.256,1.237,1.237,0,0,0-1.025.737.955.955,0,0,0,.288,1.121.922.922,0,0,0,.673.288,1.2,1.2,0,0,0,1.025-.737" transform="translate(-153.182 -306.135)" fill="#fff"/><path d="M210.9,362.141a.979.979,0,0,0-.288-1.153,1.067,1.067,0,0,0-.672-.288,1.2,1.2,0,0,0-1.025.737.936.936,0,0,0,.288,1.153.922.922,0,0,0,.673.288,1.067,1.067,0,0,0,1.025-.737" transform="translate(-148.801 -302.125)" fill="#fff"/><path d="M203.211,356.437a.936.936,0,0,0,.288,1.153.922.922,0,0,0,.672.288,1.2,1.2,0,0,0,1.025-.737.936.936,0,0,0-.288-1.153.922.922,0,0,0-.672-.288,1.157,1.157,0,0,0-1.025.737" transform="translate(-144.927 -298.726)" fill="#fff"/><path d="M231.171,382.278a1.2,1.2,0,0,0,1.025-.737.936.936,0,0,0-.288-1.153.922.922,0,0,0-.673-.288,1.2,1.2,0,0,0-1.025.737.936.936,0,0,0,.288,1.153,1,1,0,0,0,.672.288" transform="translate(-163.28 -315.312)" fill="#fff"/><path d="M223.371,375.346a1.2,1.2,0,0,0,1.025-.737,1,1,0,0,0-.288-1.121.922.922,0,0,0-.673-.288,1.2,1.2,0,0,0-1.025.737.936.936,0,0,0,.288,1.153,1.393,1.393,0,0,0,.672.288" transform="translate(-157.978 -310.622)" fill="#fff"/><path d="M240.035,388.3a1.237,1.237,0,0,0-1.025.737.936.936,0,0,0,.288,1.153,1.067,1.067,0,0,0,.672.288,1.2,1.2,0,0,0,1.025-.737.936.936,0,0,0-.288-1.153.872.872,0,0,0-.672-.288" transform="translate(-169.262 -320.886)" fill="#fff"/><path d="M249.865,397.1a1.2,1.2,0,0,0-1.025.737.979.979,0,0,0,.288,1.153,1.067,1.067,0,0,0,.672.288,1.2,1.2,0,0,0,1.025-.737.979.979,0,0,0-.288-1.153.872.872,0,0,0-.672-.288" transform="translate(-175.954 -326.868)" fill="#fff"/><path d="M204.968,241.3a.971.971,0,0,0,.1-1.057,1.141,1.141,0,0,0-1.025-.64,1.009,1.009,0,0,0-.865.512,1.086,1.086,0,0,0-.064.993,1.193,1.193,0,0,0,.993.64,1.021,1.021,0,0,0,.865-.448" transform="translate(-144.859 -219.805)" fill="#fff"/><path d="M198.867,248.646a.923.923,0,0,0,.833-.512,1.086,1.086,0,0,0,.064-.993,1.141,1.141,0,0,0-1.025-.64,1.009,1.009,0,0,0-.865.512,1.086,1.086,0,0,0-.064.993,1.239,1.239,0,0,0,1.057.64" transform="translate(-141.256 -224.495)" fill="#fff"/><path d="M194.435,255.014a.957.957,0,0,0,.8-.416.971.971,0,0,0,.1-1.057,1.2,1.2,0,0,0-1.025-.64.923.923,0,0,0-.833.512,1.086,1.086,0,0,0-.064.993,1.338,1.338,0,0,0,1.025.608" transform="translate(-138.265 -228.846)" fill="#fff"/><path d="M215.94,223.5a.957.957,0,0,0-.8.416,1.043,1.043,0,0,0-.128,1.057,1.2,1.2,0,0,0,1.025.64.957.957,0,0,0,.8-.416,1.043,1.043,0,0,0,.128-1.057,1.218,1.218,0,0,0-1.025-.64" transform="translate(-152.948 -208.86)" fill="#fff"/><path d="M209.755,232a.957.957,0,0,0-.8.416.971.971,0,0,0-.1,1.057,1.141,1.141,0,0,0,1.025.64,1.009,1.009,0,0,0,.865-.512,1.086,1.086,0,0,0,.064-.993,1.359,1.359,0,0,0-1.057-.608" transform="translate(-148.749 -214.638)" fill="#fff"/><path d="M223.2,216.014a.957.957,0,0,0,.8-.416,1.043,1.043,0,0,0,.128-1.057,1.2,1.2,0,0,0-1.025-.64.923.923,0,0,0-.833.512,1.086,1.086,0,0,0-.064.993,1.161,1.161,0,0,0,.993.608" transform="translate(-157.842 -202.335)" fill="#fff"/><path d="M230.612,205.814a1,1,0,0,0,.8-.416.971.971,0,0,0,.1-1.057,1.141,1.141,0,0,0-1.025-.64,1,1,0,0,0-.8.416,1.039,1.039,0,0,0-.1,1.057,1.2,1.2,0,0,0,1.025.64" transform="translate(-162.849 -195.401)" fill="#fff"/><path d="M198.194,231.112a.983.983,0,0,0,0,1.025,1.131,1.131,0,0,0,.993.576.972.972,0,0,0,.865-.512.983.983,0,0,0,0-1.025,1.131,1.131,0,0,0-.993-.576.972.972,0,0,0-.865.512" transform="translate(-141.479 -213.687)" fill="#fff"/><path d="M195.351,240a.983.983,0,0,0,0-1.025,1.131,1.131,0,0,0-.993-.576.972.972,0,0,0-.865.512.983.983,0,0,0,0,1.025,1.131,1.131,0,0,0,.993.576.972.972,0,0,0,.865-.512" transform="translate(-138.284 -218.989)" fill="#fff"/><path d="M191.151,247.1a.983.983,0,0,0,0-1.025,1.131,1.131,0,0,0-.993-.576.972.972,0,0,0-.865.512.983.983,0,0,0,0,1.025,1.17,1.17,0,0,0,.993.576.972.972,0,0,0,.865-.512" transform="translate(-135.429 -223.815)" fill="#fff"/><path d="M208.894,212.712a.983.983,0,0,0,0,1.025,1.131,1.131,0,0,0,.993.576.972.972,0,0,0,.865-.512.983.983,0,0,0,0-1.025,1.131,1.131,0,0,0-.993-.576.972.972,0,0,0-.865.512" transform="translate(-148.753 -201.179)" fill="#fff"/><path d="M204.159,221.8a1.009,1.009,0,0,0-.865.512.983.983,0,0,0,0,1.025,1.131,1.131,0,0,0,.993.576.972.972,0,0,0,.865-.512.983.983,0,0,0,0-1.025,1.17,1.17,0,0,0-.993-.576" transform="translate(-144.946 -207.705)" fill="#fff"/><path d="M216.087,203.514a.972.972,0,0,0,.865-.512.983.983,0,0,0,0-1.025,1.131,1.131,0,0,0-.993-.576.972.972,0,0,0-.865.512.983.983,0,0,0,0,1.025,1.212,1.212,0,0,0,.993.576" transform="translate(-152.967 -193.838)" fill="#fff"/><path d="M186.755,253.914a1.009,1.009,0,0,0,.865-.512,1.061,1.061,0,0,0,.032-1.025,1.131,1.131,0,0,0-.993-.576.972.972,0,0,0-.865.512.926.926,0,0,0,0,.993,1.088,1.088,0,0,0,.961.608" transform="translate(-133.05 -228.098)" fill="#fff"/><path d="M187.845,231.208a1.021,1.021,0,0,0,0,.961,1.186,1.186,0,0,0,.993.512,1,1,0,0,0,.865-.544,1.061,1.061,0,0,0-.032-1.025,1.171,1.171,0,0,0-.961-.512.981.981,0,0,0-.9.608" transform="translate(-134.461 -213.687)" fill="#fff"/><path d="M184.145,239.108a1.021,1.021,0,0,0,0,.961,1.186,1.186,0,0,0,.993.512.948.948,0,0,0,.9-.608,1.021,1.021,0,0,0,0-.961,1.186,1.186,0,0,0-.993-.512.965.965,0,0,0-.9.608" transform="translate(-131.945 -219.057)" fill="#fff"/><path d="M182.038,247.582a.934.934,0,0,0,.9-.608,1.021,1.021,0,0,0,0-.961,1.171,1.171,0,0,0-.961-.512,1.09,1.09,0,0,0-.929,1.569,1.276,1.276,0,0,0,.993.512" transform="translate(-129.838 -223.815)" fill="#fff"/><path d="M195.945,212.908a1.021,1.021,0,0,0,0,.961,1.171,1.171,0,0,0,.961.512,1.09,1.09,0,0,0,.929-1.569,1.171,1.171,0,0,0-.961-.512.976.976,0,0,0-.929.608" transform="translate(-139.967 -201.247)" fill="#fff"/><path d="M192.542,221.8a.948.948,0,0,0-.9.608,1.021,1.021,0,0,0,0,.961,1.186,1.186,0,0,0,.993.512,1,1,0,0,0,.865-.544,1.061,1.061,0,0,0-.032-1.025,1.171,1.171,0,0,0-.961-.512" transform="translate(-137.044 -207.705)" fill="#fff"/><path d="M201.938,203.581a.934.934,0,0,0,.9-.608,1.021,1.021,0,0,0,0-.961,1.186,1.186,0,0,0-.993-.512.948.948,0,0,0-.9.608,1.021,1.021,0,0,0,0,.961,1.276,1.276,0,0,0,.993.512" transform="translate(-143.366 -193.906)" fill="#fff"/><path d="M207.238,191.682a1.052,1.052,0,0,0,.9-.544.984.984,0,0,0-.032-1.025,1.171,1.171,0,0,0-.961-.512.934.934,0,0,0-.9.608,1.021,1.021,0,0,0,0,.961,1.171,1.171,0,0,0,.961.512" transform="translate(-146.968 -185.816)" fill="#fff"/><path d="M181.757,222.7a1.02,1.02,0,0,0-.833,1.6,1.216,1.216,0,0,0,.929.48,1,1,0,0,0,.961-.7.911.911,0,0,0-.128-.9,1.216,1.216,0,0,0-.929-.48" transform="translate(-129.717 -208.317)" fill="#fff"/><path d="M177.889,232.1a1,1,0,0,0,.128.9,1.216,1.216,0,0,0,.929.48,1,1,0,0,0,.961-.7.971.971,0,0,0-.128-.929,1.184,1.184,0,0,0-.929-.448.952.952,0,0,0-.961.7" transform="translate(-127.739 -214.225)" fill="#fff"/><path d="M177.376,240.477a.984.984,0,0,0-.128-.9,1.216,1.216,0,0,0-.929-.48,1,1,0,0,0-.961.7.911.911,0,0,0,.128.9,1.216,1.216,0,0,0,.929.48.962.962,0,0,0,.961-.7" transform="translate(-126.009 -219.465)" fill="#fff"/><path d="M188.415,204.514a.985.985,0,0,0,.9-.576,1.041,1.041,0,0,0-.064-1.057,1.216,1.216,0,0,0-.929-.48,1,1,0,0,0-.961.7.971.971,0,0,0,.128.929,1.125,1.125,0,0,0,.929.48" transform="translate(-134.166 -194.517)" fill="#fff"/><path d="M183.889,213.9a.984.984,0,0,0,.128.9,1.216,1.216,0,0,0,.929.48,1.023,1.023,0,0,0,.833-1.6,1.216,1.216,0,0,0-.929-.48.952.952,0,0,0-.961.7" transform="translate(-131.817 -201.854)" fill="#fff"/><path d="M192.445,192.782a1,1,0,0,0,.961-.7.911.911,0,0,0-.128-.9,1.216,1.216,0,0,0-.929-.48,1,1,0,0,0-.961.7,1.065,1.065,0,0,0,.128.929,1.236,1.236,0,0,0,.929.448" transform="translate(-136.915 -186.564)" fill="#fff"/><path d="M174.153,248.181a1,1,0,0,0,.961-.7.911.911,0,0,0-.128-.9,1.216,1.216,0,0,0-.929-.48,1.013,1.013,0,0,0-.9.544,1.065,1.065,0,0,0,.993,1.537" transform="translate(-124.483 -224.223)" fill="#fff"/><path d="M171.7,226.881a.967.967,0,0,0,.993-.8,1.019,1.019,0,0,0-1.057-1.281,1,1,0,0,0-.993.8,1.019,1.019,0,0,0,1.057,1.281" transform="translate(-122.835 -209.744)" fill="#fff"/><path d="M168.649,234.1a1.065,1.065,0,0,0,.192.865,1.191,1.191,0,0,0,.9.416.945.945,0,0,0,.993-.8,1.019,1.019,0,0,0-1.057-1.281,1.007,1.007,0,0,0-1.025.8" transform="translate(-121.477 -215.522)" fill="#fff"/><path d="M167.048,241.7a1.019,1.019,0,0,0,1.057,1.281.945.945,0,0,0,.993-.8,1.019,1.019,0,0,0-1.057-1.281.967.967,0,0,0-.993.8" transform="translate(-120.388 -220.684)" fill="#fff"/><path d="M175.937,207.281a.945.945,0,0,0,.993-.8,1.065,1.065,0,0,0-.192-.865,1.191,1.191,0,0,0-.9-.416.972.972,0,0,0-.993.8,1.182,1.182,0,0,0,.16.865,1.154,1.154,0,0,0,.929.416" transform="translate(-125.69 -196.421)" fill="#fff"/><path d="M173.706,217.681a.972.972,0,0,0,.993-.8,1.019,1.019,0,0,0-1.057-1.281,1,1,0,0,0-.993.8,1.065,1.065,0,0,0,.192.865,1.177,1.177,0,0,0,.865.416" transform="translate(-124.196 -203.49)" fill="#fff"/><path d="M178.48,195.581a.945.945,0,0,0,.993-.8.961.961,0,0,0-.192-.865,1.191,1.191,0,0,0-.9-.416.985.985,0,0,0-.9.576,1.105,1.105,0,0,0,.1,1.089,1.191,1.191,0,0,0,.9.416" transform="translate(-127.434 -188.467)" fill="#fff"/><path d="M180.909,183.577a.945.945,0,0,0,.993-.8,1.065,1.065,0,0,0-.192-.865,1.191,1.191,0,0,0-.9-.416.945.945,0,0,0-.993.8.961.961,0,0,0,.192.865,1.092,1.092,0,0,0,.9.416" transform="translate(-129.061 -180.306)" fill="#fff"/><path d="M163.34,220.678a.976.976,0,0,0,.929-.608,1.1,1.1,0,0,0-.128-1.121,1.163,1.163,0,0,0-.833-.352.967.967,0,0,0-1.025.9,1.032,1.032,0,0,0,.224.8,1.078,1.078,0,0,0,.833.384" transform="translate(-117.161 -205.526)" fill="#fff"/><path d="M162.353,229.673a.993.993,0,0,0,1.025-.929,1.032,1.032,0,0,0-.224-.8,1.048,1.048,0,0,0-.833-.352,1.049,1.049,0,0,0-.8,1.7,1.127,1.127,0,0,0,.833.384" transform="translate(-116.494 -211.639)" fill="#fff"/><path d="M161.372,237.781a.993.993,0,0,0,1.025-.929,1.032,1.032,0,0,0-.224-.8,1.237,1.237,0,0,0-.865-.352.993.993,0,0,0-1.025.929,1.032,1.032,0,0,0,.224.8,1.3,1.3,0,0,0,.865.352" transform="translate(-115.801 -217.154)" fill="#fff"/><path d="M165.74,199.546a.967.967,0,0,0,1.025-.9,1.032,1.032,0,0,0-.224-.8,1.163,1.163,0,0,0-.833-.352.967.967,0,0,0-1.025.9,1.032,1.032,0,0,0,.224.8,1.11,1.11,0,0,0,.833.352" transform="translate(-118.792 -191.183)" fill="#fff"/><path d="M164.553,210.673a.993.993,0,0,0,1.025-.929,1.032,1.032,0,0,0-.224-.8,1.048,1.048,0,0,0-.833-.352.976.976,0,0,0-.929.608,1.1,1.1,0,0,0,.128,1.121,1.062,1.062,0,0,0,.833.352" transform="translate(-117.989 -198.723)" fill="#fff"/><path d="M166.972,187.082a.976.976,0,0,0,.929-.608,1.1,1.1,0,0,0-.128-1.121,1.237,1.237,0,0,0-.865-.352.993.993,0,0,0-1.025.929,1.032,1.032,0,0,0,.224.8,1.3,1.3,0,0,0,.865.352" transform="translate(-119.608 -182.689)" fill="#fff"/><path d="M159.743,244.729a1.163,1.163,0,0,0,.833.352.993.993,0,0,0,1.025-.929,1.054,1.054,0,0,0-.256-.8,1.163,1.163,0,0,0-.833-.352.993.993,0,0,0-1.025.929,1.015,1.015,0,0,0,.256.8" transform="translate(-115.261 -222.116)" fill="#fff"/><path d="M153.947,224.749a1.01,1.01,0,0,0,.769-.288,1.1,1.1,0,0,0,.32-.737,1.015,1.015,0,0,0-.288-.737,1.148,1.148,0,0,0-.769-.288,1.073,1.073,0,0,0-.961.608,1.027,1.027,0,0,0,.192,1.121.847.847,0,0,0,.737.32" transform="translate(-110.81 -208.317)" fill="#fff"/><path d="M153.679,233.707a1.073,1.073,0,0,0,.961-.608,1.027,1.027,0,0,0-.192-1.121,1.01,1.01,0,0,0-.769-.288,1.073,1.073,0,0,0-.961.608,1.037,1.037,0,0,0,.192,1.121,1.488,1.488,0,0,0,.769.288" transform="translate(-110.606 -214.424)" fill="#fff"/><path d="M153.725,241.281a1.01,1.01,0,0,0,.769-.288,1.1,1.1,0,0,0,.32-.737,1.014,1.014,0,0,0-.288-.737,1.118,1.118,0,0,0-.769-.32,1.015,1.015,0,0,0-.737.288,1.042,1.042,0,0,0-.32.737,1.069,1.069,0,0,0,.288.737.987.987,0,0,0,.737.32" transform="translate(-110.652 -219.533)" fill="#fff"/><path d="M153.889,204.7a1.01,1.01,0,0,0,.769-.288.967.967,0,0,0,.288-.769,1.069,1.069,0,0,0-.288-.737,1.118,1.118,0,0,0-.769-.32,1.01,1.01,0,0,0-.769.288,1.1,1.1,0,0,0-.32.737,1.014,1.014,0,0,0,.288.737,1.027,1.027,0,0,0,.8.352" transform="translate(-110.72 -194.643)" fill="#fff"/><path d="M153.979,215.417a1.073,1.073,0,0,0,.961-.608,1.027,1.027,0,0,0-.192-1.121,1.147,1.147,0,0,0-.769-.288,1.073,1.073,0,0,0-.961.608,1.037,1.037,0,0,0,.192,1.121,1.091,1.091,0,0,0,.769.288" transform="translate(-110.81 -201.995)" fill="#fff"/><path d="M154.079,192.814a1.01,1.01,0,0,0,.769-.288.967.967,0,0,0,.288-.769,1.069,1.069,0,0,0-.288-.737,1.118,1.118,0,0,0-.769-.32,1.073,1.073,0,0,0-.961.608,1.027,1.027,0,0,0,.192,1.121.955.955,0,0,0,.769.384" transform="translate(-110.878 -186.564)" fill="#fff"/><path d="M154.057,179.871a1.148,1.148,0,0,0,.769-.288,1.1,1.1,0,0,0,.32-.737,1.069,1.069,0,0,0-.288-.737,1.118,1.118,0,0,0-.769-.32,1.01,1.01,0,0,0-.769.288,1.1,1.1,0,0,0-.32.737,1.014,1.014,0,0,0,.288.737,1.118,1.118,0,0,0,.769.32" transform="translate(-110.856 -177.785)" fill="#fff"/><path d="M214.243,243.814a.911.911,0,0,0,.737-.352.975.975,0,0,0,.192-1.089,1.116,1.116,0,0,0-1.025-.672.911.911,0,0,0-.737.352.975.975,0,0,0-.192,1.089,1.21,1.21,0,0,0,1.025.673" transform="translate(-151.732 -221.232)" fill="#fff"/><path d="M208.143,250.546a.958.958,0,0,0,.737-.352.975.975,0,0,0,.192-1.089,1.2,1.2,0,0,0-1.025-.7.957.957,0,0,0-.737.352.985.985,0,0,0-.192,1.089,1.2,1.2,0,0,0,1.025.7" transform="translate(-147.585 -225.787)" fill="#fff"/><path d="M203.379,256.193a.975.975,0,0,0,.192-1.089,1.2,1.2,0,0,0-1.025-.7.957.957,0,0,0-.737.352.975.975,0,0,0-.192,1.089,1.2,1.2,0,0,0,1.025.7.958.958,0,0,0,.737-.352" transform="translate(-143.846 -229.865)" fill="#fff"/><path d="M228.643,228.214a.911.911,0,0,0,.737-.352.975.975,0,0,0,.192-1.089,1.116,1.116,0,0,0-1.025-.672.911.911,0,0,0-.737.352.975.975,0,0,0-.192,1.089,1.171,1.171,0,0,0,1.025.672" transform="translate(-161.52 -210.628)" fill="#fff"/><path d="M221.047,234.2a.911.911,0,0,0-.737.352.975.975,0,0,0-.192,1.089,1.116,1.116,0,0,0,1.025.672.957.957,0,0,0,.737-.352.975.975,0,0,0,.192-1.089,1.232,1.232,0,0,0-1.025-.672" transform="translate(-156.422 -216.134)" fill="#fff"/><path d="M236.018,218.141a1.116,1.116,0,0,0,1.025.672.911.911,0,0,0,.737-.352.975.975,0,0,0,.192-1.089,1.116,1.116,0,0,0-1.025-.672.911.911,0,0,0-.737.352.985.985,0,0,0-.192,1.089" transform="translate(-167.23 -204.238)" fill="#fff"/><path d="M197.68,262.014a.911.911,0,0,0,.737-.352.975.975,0,0,0,.192-1.089,1.116,1.116,0,0,0-1.025-.672.956.956,0,0,0-.833.48,1.126,1.126,0,0,0-.1.961,1.21,1.21,0,0,0,1.025.672" transform="translate(-140.485 -233.604)" fill="#fff"/><path d="M217.435,253.646a1.033,1.033,0,0,0,.672-.256.957.957,0,0,0,.288-1.153,1.144,1.144,0,0,0-1.025-.737.922.922,0,0,0-.672.288.957.957,0,0,0-.288,1.153,1.18,1.18,0,0,0,1.025.7" transform="translate(-153.899 -227.894)" fill="#fff"/><path d="M212,258.137a1.144,1.144,0,0,0-1.025-.737.922.922,0,0,0-.673.288.957.957,0,0,0-.288,1.153,1.2,1.2,0,0,0,1.025.737.973.973,0,0,0,.672-.256,1.09,1.09,0,0,0,.288-1.185" transform="translate(-149.549 -231.905)" fill="#fff"/><path d="M205.135,264.546a.922.922,0,0,0,.673-.288.978.978,0,0,0,.288-1.121,1.144,1.144,0,0,0-1.025-.737.922.922,0,0,0-.673.288.957.957,0,0,0-.288,1.153,1.144,1.144,0,0,0,1.025.737" transform="translate(-145.538 -235.303)" fill="#fff"/><path d="M233.3,239.037a1.144,1.144,0,0,0-1.025-.737,1.033,1.033,0,0,0-.672.256.957.957,0,0,0-.288,1.153,1.144,1.144,0,0,0,1.025.737.922.922,0,0,0,.672-.288.9.9,0,0,0,.288-1.121" transform="translate(-164.028 -218.921)" fill="#fff"/><path d="M223.7,245.488a.957.957,0,0,0-.288,1.153,1.144,1.144,0,0,0,1.025.737.922.922,0,0,0,.673-.288.957.957,0,0,0,.288-1.153,1.144,1.144,0,0,0-1.025-.737.872.872,0,0,0-.672.288" transform="translate(-158.658 -223.611)" fill="#fff"/><path d="M241.171,230.3a1.034,1.034,0,0,0-.673.256.957.957,0,0,0-.288,1.153,1.143,1.143,0,0,0,1.025.737.922.922,0,0,0,.672-.288A.957.957,0,0,0,242.2,231a1.113,1.113,0,0,0-1.025-.7" transform="translate(-170.078 -213.483)" fill="#fff"/><path d="M250.535,224.278a.872.872,0,0,0,.672-.288,1,1,0,0,0,.288-1.153,1.2,1.2,0,0,0-1.025-.737,1.034,1.034,0,0,0-.672.256.957.957,0,0,0-.288,1.153,1.176,1.176,0,0,0,1.025.769" transform="translate(-176.4 -207.909)" fill="#fff"/><path d="M296.754,421.685,292.5,414.8h-4.2v16.908h3.875v-10.44l4.419,6.693h.256L301.3,421.2v10.5h3.907V414.8h-4.163Z" transform="translate(-202.828 -338.9)" fill="#fff"/><path d="M353.439,424.951h7.846v-3.523h-7.846v-3.074h8.9V414.8H349.5v16.908h12.969v-3.555h-9.031Z" transform="translate(-244.43 -338.9)" fill="#fff"/><path d="M405.554,421.685l-4.291-6.885H397.1v16.908h3.875v-10.44l4.387,6.693h.256l4.451-6.757v10.5h3.939V414.8h-4.2Z" transform="translate(-276.787 -338.9)" fill="#fff"/><path d="M469.828,423.106a3.925,3.925,0,0,0,1.985-3.555c0-2.69-2.21-4.451-5.636-4.451H458.3v16.908h8.038c4.035,0,6.373-1.7,6.373-4.675a4.133,4.133,0,0,0-2.914-4.1v-.128Zm-1.953-2.786c0,1.057-.833,1.6-2.5,1.6h-3.234v-3.458h3.491c1.441,0,2.242.544,2.242,1.569Zm-5.7,4.932h4.067c1.7,0,2.562.544,2.562,1.633,0,1.153-.8,1.665-2.434,1.665h-4.2Z" transform="translate(-318.389 -339.104)" fill="#fff"/><path d="M512.639,424.951h7.846v-3.523h-7.846v-3.074h8.9V414.8H508.7v16.908h12.969v-3.555h-9.031Z" transform="translate(-352.649 -338.9)" fill="#fff"/><path d="M566.9,425.756a5.331,5.331,0,0,0,3.49-5.22c0-3.491-2.4-5.636-6.437-5.636H556.2v16.908h3.939V426.46H562.8l3.555,5.316h4.675Zm-6.725-7.3h3.49c1.761,0,2.722.769,2.722,2.21,0,1.377-1.025,2.21-2.658,2.21h-3.491Z" transform="translate(-384.938 -338.968)" fill="#fff"/></g></g></g></g></g></g></g></svg>
